<?xml version="1.0" encoding="UTF-8" standalone="no"?>
<!-- Created with Inkscape (http://www.inkscape.org/) -->

<svg
   xmlns:dc="http://purl.org/dc/elements/1.1/"
   xmlns:cc="http://creativecommons.org/ns#"
   xmlns:rdf="http://www.w3.org/1999/02/22-rdf-syntax-ns#"
   xmlns:svg="http://www.w3.org/2000/svg"
   xmlns="http://www.w3.org/2000/svg"
   xmlns:sodipodi="http://sodipodi.sourceforge.net/DTD/sodipodi-0.dtd"
   xmlns:inkscape="http://www.inkscape.org/namespaces/inkscape"
   width="1320"
   height="800"
   id="svg3490"
   version="1.1"
   inkscape:version="0.48.4 r9939"
   sodipodi:docname="bg.svg">
  <defs
     id="defs3492" />
  <sodipodi:namedview
     id="base"
     pagecolor="#ffffff"
     bordercolor="#666666"
     borderopacity="1.0"
     inkscape:pageopacity="0.0"
     inkscape:pageshadow="2"
     inkscape:zoom="0.35"
     inkscape:cx="375"
     inkscape:cy="520"
     inkscape:document-units="px"
     inkscape:current-layer="layer1"
     showgrid="false"
     inkscape:window-width="1855"
     inkscape:window-height="1056"
     inkscape:window-x="65"
     inkscape:window-y="24"
     inkscape:window-maximized="1" />
  <metadata
     id="metadata3495">
    <rdf:RDF>
      <cc:Work
         rdf:about="">
        <dc:format>image/svg+xml</dc:format>
        <dc:type
           rdf:resource="http://purl.org/dc/dcmitype/StillImage" />
        <dc:title />
      </cc:Work>
    </rdf:RDF>
  </metadata>
  <g
     inkscape:label="Layer 1"
     inkscape:groupmode="layer"
     id="layer1"
     transform="translate(0,-252.36218)">
    <g
       style="font-size:430.62698364px;font-style:normal;font-variant:normal;font-weight:bold;font-stretch:normal;line-height:125%;letter-spacing:0px;word-spacing:0px;fill:#d42b02;fill-opacity:0.26940637;stroke:none;font-family:Montserrat;-inkscape-font-specification:Montserrat Bold"
       id="text5525"
       transform="translate(0,-52)">
      <path
         d="m 18.169188,307.42141 80.952827,0 0,252.74103 142.140545,0 0,61.18772 -223.093372,0 0,-313.92875"
         id="path3088"
         inkscape:connector-curvature="0" />
      <path
         d="m 292.35745,307.42141 218.4675,0 0,61.18772 -137.51467,0 0,58.45425 129.31425,0 0,61.18772 -129.31425,0 0,71.91134 142.14055,0 0,61.18772 -223.09338,0 0,-313.92875"
         id="path3090"
         inkscape:connector-curvature="0" />
      <path
         d="m 549.30378,307.42141 289.32751,0 0,61.18772 -104.08221,0 0,252.74103 -80.95283,0 0,-252.74103 -104.29247,0 0,-61.18772"
         id="path3092"
         inkscape:connector-curvature="0" />
    </g>
    <g
       style="font-size:233.64903259px;font-style:normal;font-variant:normal;font-weight:bold;font-stretch:normal;line-height:125%;letter-spacing:0px;word-spacing:0px;fill:#d42b02;fill-opacity:0.26940637;stroke:none;font-family:Montserrat;-inkscape-font-specification:Montserrat Bold"
       id="text5529"
       transform="translate(0,-52)">
      <path
         d="m 561.74989,377.80285 55.90235,0 38.78939,91.15507 39.01757,-91.15507 55.78827,0 0,170.33106 -41.52747,0 0,-124.58239 -39.24573,91.83958 -27.8371,0 -39.24573,-91.83958 0,124.58239 -41.64155,0 0,-170.33106"
         id="path3095"
         inkscape:connector-curvature="0" />
      <path
         d="m 794.48623,377.80285 43.92328,0 0,102.10737 c -7e-5,14.07071 2.28166,24.14834 6.84519,30.23291 4.63944,6.00858 12.16913,9.01285 22.58911,9.01282 10.49585,3e-5 18.02555,-3.00424 22.58912,-9.01282 4.63939,-6.08457 6.95915,-16.1622 6.95927,-30.23291 l 0,-102.10737 43.92328,0 0,102.10737 c -1.7e-4,24.11031 -6.04674,42.05989 -18.13974,53.8488 -12.0933,11.78893 -30.53726,17.68339 -55.33193,17.6834 -24.7188,-10e-6 -43.12472,-5.89447 -55.21784,-17.6834 -12.09319,-11.78891 -18.13976,-29.73849 -18.13974,-53.8488 l 0,-102.10737"
         id="path3097"
         inkscape:connector-curvature="0" />
      <path
         d="m 1102.8619,383.16492 0,36.05131 c -9.3552,-4.18303 -18.4822,-7.33942 -27.3808,-9.46917 -8.8988,-2.12948 -17.3032,-3.19428 -25.2131,-3.19442 -10.496,1.4e-4 -18.2539,1.44523 -23.2736,4.33528 -5.0199,2.89033 -7.5298,7.37772 -7.5297,13.4622 -10e-5,4.56358 1.6732,8.13828 5.0198,10.72413 3.4225,2.51001 9.5832,4.67765 18.482,6.50292 l 18.7102,3.76486 c 18.9382,3.80298 32.4004,9.58335 40.3866,17.34114 7.9859,7.75795 11.9789,18.7863 11.979,33.08506 -10e-5,18.78627 -5.5903,32.78086 -16.7707,41.98381 -11.1045,9.12692 -28.1034,13.69037 -50.9966,13.69038 -10.8003,-10e-6 -21.6385,-1.02678 -32.5146,-3.08034 -10.8763,-2.05355 -21.75255,-5.09585 -32.62876,-9.12691 l 0,-37.07809 c 10.87621,5.78042 21.37216,10.15372 31.48786,13.11994 10.1917,2.89022 20.0031,4.33531 29.4343,4.33528 9.5832,3e-5 16.9227,-1.59718 22.0187,-4.79163 5.0957,-3.19438 7.6437,-7.75784 7.6438,-13.69037 -10e-5,-5.32398 -1.7495,-9.43109 -5.248,-12.32134 -3.4227,-2.89013 -10.3059,-5.47608 -20.6496,-7.75788 l -16.9989,-3.76485 c -17.037,-3.65069 -29.51043,-9.46909 -37.42038,-17.45522 -7.83396,-7.98596 -11.75092,-18.7481 -11.75091,-32.28647 -10e-6,-16.96071 5.47613,-30.00458 16.42845,-39.13165 10.95224,-9.12674 26.69614,-13.6902 47.23174,-13.69037 9.355,1.7e-4 18.9763,0.72272 28.8639,2.16764 9.8874,1.36921 20.1171,3.46079 30.6893,6.27476"
         id="path3099"
         inkscape:connector-curvature="0" />
      <path
         d="m 1152.7177,377.80285 43.9232,0 0,170.33106 -43.9232,0 0,-170.33106"
         id="path3101"
         inkscape:connector-curvature="0" />
      <path
         d="m 1374.9581,538.77882 c -8.0623,4.18318 -16.4667,7.33957 -25.2131,9.46918 -8.7468,2.12961 -17.8737,3.19441 -27.3808,3.19442 -28.3696,-10e-6 -50.8446,-7.90999 -67.4251,-23.72998 -16.5806,-15.89601 -24.8708,-37.4203 -24.8708,-64.57293 0,-27.22852 8.2902,-48.7528 24.8708,-64.57292 16.5805,-15.89588 39.0555,-23.8439 67.4251,-23.84407 9.5071,1.7e-4 18.634,1.06498 27.3808,3.19442 8.7464,2.12978 17.1508,5.28617 25.2131,9.46917 l 0,35.25272 c -8.1384,-5.55208 -16.1624,-9.62116 -24.0723,-12.20725 -7.9101,-2.58582 -16.2384,-3.8788 -24.9849,-3.87894 -15.668,1.4e-4 -27.9893,5.01994 -36.964,15.05941 -8.9749,10.03972 -13.4623,23.8822 -13.4622,41.52746 -10e-5,17.56938 4.4873,31.37383 13.4622,41.41338 8.9747,10.03964 21.296,15.05944 36.964,15.05941 8.7465,3e-5 17.0748,-1.29295 24.9849,-3.87894 7.9099,-2.58592 15.9339,-6.655 24.0723,-12.20725 l 0,35.25271"
         id="path3103"
         inkscape:connector-curvature="0" />
    </g>
    <g
       style="font-size:225.3742218px;font-style:normal;font-variant:normal;font-weight:bold;font-stretch:normal;line-height:125%;letter-spacing:0px;word-spacing:0px;fill:#d42b02;fill-opacity:0.26940637;stroke:none;font-family:Montserrat;-inkscape-font-specification:Montserrat Bold"
       id="text5533"
       transform="translate(0,-52)">
      <path
         d="m 149.5683,825.77336 c 6.67604,10e-5 11.73815,-1.46718 15.18635,-4.40184 3.44801,-2.93445 5.17206,-7.26293 5.17217,-12.98543 -1.1e-4,-5.64891 -1.72416,-9.9407 -5.17217,-12.87538 -3.4482,-3.00779 -8.51031,-4.51175 -15.18635,-4.51189 l -23.43979,0 0,34.77454 23.43979,0 m 1.4306,71.86004 c 8.51013,3e-5 14.89279,-1.79739 19.14801,-5.39225 4.32836,-3.5948 6.4926,-9.02373 6.49271,-16.28681 -1.1e-4,-7.11625 -2.12767,-12.43514 -6.38267,-15.95667 -4.25521,-3.59477 -10.67456,-5.39219 -19.25805,-5.39226 l -24.87039,0 0,43.02799 24.87039,0 m 39.39647,-59.09471 c 9.097,2.64119 16.13994,7.5199 21.12884,14.63612 4.9886,7.11638 7.48297,15.84669 7.48313,26.19095 -1.6e-4,15.84666 -5.35573,27.65825 -16.06672,35.43482 -10.71128,7.77659 -26.99807,11.66487 -48.86043,11.66487 l -70.319397,0 0,-164.29868 63.606587,0 c 22.8161,1.6e-4 39.32299,3.44827 49.52071,10.34432 10.27081,6.89636 15.40629,17.93764 15.40644,33.12385 -1.5e-4,7.99679 -1.87093,14.81963 -5.61235,20.46856 -3.7417,5.57576 -9.17063,9.72082 -16.28681,12.43519"
         id="path3106"
         inkscape:connector-curvature="0" />
      <path
         d="m 255.43256,762.16677 114.3378,0 0,32.02338 -71.97009,0 0,30.59279 67.6783,0 0,32.02339 -67.6783,0 0,37.63574 74.3911,0 0,32.02338 -116.75881,0 0,-164.29868"
         id="path3108"
         inkscape:connector-curvature="0" />
    </g>
    <g
       style="font-size:228.1394043px;font-style:normal;font-variant:normal;font-weight:bold;font-stretch:normal;line-height:125%;letter-spacing:0px;word-spacing:0px;fill:#d42b02;fill-opacity:0.26940637;stroke:none;font-family:Montserrat;-inkscape-font-specification:Montserrat Bold"
       id="text5537"
       transform="translate(0,-52)">
      <path
         d="m 240.7761,674.77679 46.8978,0 37.87471,59.26278 37.8747,-59.26278 47.0092,0 -63.38444,96.24631 0,70.06821 -42.88753,0 0,-70.06821 -63.38444,-96.24631"
         id="path3111"
         inkscape:connector-curvature="0" />
      <path
         d="m 497.21014,702.84863 c -13.07057,1.4e-4 -23.20761,4.8273 -30.41116,14.48151 -7.20368,9.65445 -10.80548,23.24477 -10.80543,40.771 -5e-5,17.45214 3.60175,31.00533 10.80543,40.65962 7.20355,9.65436 17.34059,14.48153 30.41116,14.4815 13.14465,3e-5 23.31882,-4.82714 30.52256,-14.4815 7.20349,-9.65429 10.80529,-23.20748 10.80543,-40.65962 -1.4e-4,-17.52623 -3.60194,-31.11655 -10.80543,-40.771 -7.20374,-9.65421 -17.37791,-14.48137 -30.52256,-14.48151 m 0,-31.07954 c 26.73497,1.7e-4 47.67743,7.64937 62.82746,22.94762 15.1497,15.29854 22.72464,36.42667 22.72482,63.38443 -1.8e-4,26.88368 -7.57512,47.97467 -22.72482,63.27304 -15.15003,15.29842 -36.09249,22.94761 -62.82746,22.94762 -26.66089,-1e-5 -47.60335,-7.6492 -62.82745,-22.94762 -15.1499,-15.29837 -22.72483,-36.38936 -22.72482,-63.27304 -10e-6,-26.95776 7.57492,-48.08589 22.72482,-63.38443 15.2241,-15.29825 36.16656,-22.94745 62.82745,-22.94762"
         id="path3113"
         inkscape:connector-curvature="0" />
      <path
         d="m 615.0673,674.77679 42.88754,0 0,99.69959 c -7e-5,13.73892 2.22785,23.57891 6.68377,29.52 4.53003,5.86689 11.88218,8.80032 22.05644,8.8003 10.24835,2e-5 17.60049,-2.93341 22.05645,-8.8003 4.52999,-5.94109 6.79505,-15.78108 6.79517,-29.52 l 0,-99.69959 42.88753,0 0,99.69959 c -1.6e-4,23.54178 -5.90415,41.06809 -17.71199,52.57901 -11.80813,11.51094 -29.81717,17.2664 -54.02716,17.26641 -24.13591,-1e-5 -42.10781,-5.75547 -53.91575,-17.26641 -11.80803,-11.51092 -17.71202,-29.03723 -17.712,-52.57901 l 0,-99.69959"
         id="path3115"
         inkscape:connector-curvature="0" />
      <path
         d="m 861.3643,748.52107 c 8.98587,9e-5 15.40971,-1.67085 19.27154,-5.01283 3.9359,-3.34178 5.90389,-8.83732 5.904,-16.48663 -1.1e-4,-7.57482 -1.9681,-12.9961 -5.904,-16.26385 -3.86183,-3.26749 -10.28567,-4.9013 -19.27154,-4.90143 l -18.04618,0 0,42.66474 18.04618,0 m -18.04618,29.63139 0,62.93885 -42.88754,0 0,-166.31452 65.50096,0 c 21.90781,1.7e-4 37.94885,3.67624 48.12316,11.02822 10.2483,7.3523 15.37252,18.97463 15.37267,34.86701 -1.5e-4,10.9912 -2.67365,20.01429 -8.02052,27.06928 -5.27289,7.05518 -13.25628,12.25366 -23.95018,15.59547 5.86674,1.33683 11.10236,4.38165 15.70686,9.13448 4.6785,4.67871 9.39427,11.80806 14.14732,21.38807 l 23.2818,47.23199 -45.67244,0 -20.27411,-41.32799 c -4.08462,-8.31753 -8.24341,-13.99873 -12.47637,-17.04362 -4.15888,-3.04476 -9.72868,-4.56718 -16.70943,-4.56724 l -12.14218,0"
         id="path3117"
         inkscape:connector-curvature="0" />
    </g>
    <g
       style="font-size:229.50526428px;font-style:normal;font-variant:normal;font-weight:bold;font-stretch:normal;line-height:125%;letter-spacing:0px;word-spacing:0px;fill:#d42b02;fill-opacity:0.26940637;stroke:none;font-family:Montserrat;-inkscape-font-specification:Montserrat Bold"
       id="text5541"
       transform="translate(0,-52)">
      <path
         d="m 221.54901,880.78596 43.1443,0 0,63.76391 63.65185,0 0,-63.76391 43.1443,0 0,167.31024 -43.1443,0 0,-70.93596 -63.65185,0 0,70.93596 -43.1443,0 0,-167.31024"
         id="path3120"
         inkscape:connector-curvature="0" />
      <path
         d="m 490.27636,909.02586 c -13.14882,1.4e-4 -23.34656,4.85621 -30.59323,14.56821 -7.24681,9.71225 -10.87018,23.38394 -10.87012,41.0151 -6e-5,17.55662 3.62331,31.19095 10.87012,40.90303 7.24667,9.7122 17.44441,14.5682 30.59323,14.5682 13.22334,0 23.45843,-4.856 30.70529,-14.5682 7.24662,-9.71208 10.86999,-23.34641 10.87013,-40.90303 -1.4e-4,-17.63116 -3.62351,-31.30285 -10.87013,-41.0151 -7.24686,-9.712 -17.48195,-14.56807 -30.70529,-14.56821 m 0,-31.26561 c 26.89502,1.7e-4 47.96287,7.69517 63.2036,23.08501 15.24041,15.39013 22.86069,36.64475 22.86087,63.76391 -1.8e-4,27.04462 -7.62046,48.26193 -22.86087,63.65183 -15.24073,15.39 -36.30858,23.085 -63.2036,23.085 -26.82051,0 -47.88835,-7.695 -63.2036,-23.085 -15.2406,-15.3899 -22.86089,-36.60721 -22.86087,-63.65183 -2e-5,-27.11916 7.62027,-48.37378 22.86087,-63.76391 15.31525,-15.38984 36.38309,-23.08484 63.2036,-23.08501"
         id="path3122"
         inkscape:connector-curvature="0" />
      <path
         d="m 675.85288,945.55844 c 6.7984,10e-5 11.9533,-1.49407 15.46471,-4.48253 3.51121,-2.98824 5.26686,-7.39605 5.26697,-13.22344 -1.1e-4,-5.75245 -1.75576,-10.12291 -5.26697,-13.11139 -3.51141,-3.06292 -8.66631,-4.59445 -15.46471,-4.59459 l -23.86944,0 0,35.41195 23.86944,0 m 1.45682,73.17726 c 8.66612,0 15.16577,-1.8304 19.49898,-5.4911 4.40771,-3.6607 6.61161,-9.1892 6.61173,-16.58538 -1.2e-4,-7.24669 -2.16667,-12.66307 -6.49966,-16.24915 -4.33321,-3.66066 -10.87022,-5.49102 -19.61105,-5.49109 l -25.32626,0 0,43.81672 25.32626,0 m 40.1186,-60.17794 c 9.26374,2.6896 16.43578,7.65773 21.51612,14.9044 5.08003,7.24681 7.62013,16.13714 7.62029,26.67104 -1.6e-4,16.1371 -5.45389,28.1652 -16.36122,36.0843 -10.90761,7.9191 -27.49293,11.8787 -49.75602,11.8787 l -71.60833,0 0,-167.31024 64.77248,0 c 23.23431,1.6e-4 40.04376,3.51147 50.4284,10.53393 10.45908,7.02277 15.68869,18.26643 15.68884,33.731 -1.5e-4,8.14337 -1.90523,15.09127 -5.71522,20.84374 -3.81029,5.67796 -9.33873,9.899 -16.58534,12.66313"
         id="path3124"
         inkscape:connector-curvature="0" />
      <path
         d="m 850.67133,945.55844 c 6.7984,10e-5 11.9533,-1.49407 15.46471,-4.48253 3.51121,-2.98824 5.26686,-7.39605 5.26697,-13.22344 -1.1e-4,-5.75245 -1.75576,-10.12291 -5.26697,-13.11139 -3.51141,-3.06292 -8.66631,-4.59445 -15.46471,-4.59459 l -23.86944,0 0,35.41195 23.86944,0 m 1.45682,73.17726 c 8.66612,0 15.16577,-1.8304 19.49898,-5.4911 4.40771,-3.6607 6.61161,-9.1892 6.61173,-16.58538 -1.2e-4,-7.24669 -2.16667,-12.66307 -6.49966,-16.24915 -4.33321,-3.66066 -10.87022,-5.49102 -19.61105,-5.49109 l -25.32626,0 0,43.81672 25.32626,0 m 40.1186,-60.17794 c 9.26374,2.6896 16.43578,7.65773 21.51612,14.9044 5.08004,7.24681 7.62013,16.13714 7.62029,26.67104 -1.6e-4,16.1371 -5.45389,28.1652 -16.36122,36.0843 -10.9076,7.9191 -27.49293,11.8787 -49.75602,11.8787 l -71.60833,0 0,-167.31024 64.77248,0 c 23.23431,1.6e-4 40.04376,3.51147 50.4284,10.53393 10.45908,7.02277 15.68869,18.26643 15.68884,33.731 -1.5e-4,8.14337 -1.90522,15.09127 -5.71522,20.84374 -3.81029,5.67796 -9.33873,9.899 -16.58534,12.66313"
         id="path3126"
         inkscape:connector-curvature="0" />
      <path
         d="m 922.61585,880.78596 47.17858,0 38.10147,59.61758 38.1014,-59.61758 47.2907,0 -63.7639,96.82253 0,70.48771 -43.14433,0 0,-70.48771 -63.76392,-96.82253"
         id="path3128"
         inkscape:connector-curvature="0" />
    </g>
  </g>
</svg>
