<?xml version="1.0" encoding="UTF-8" standalone="no"?>
<!-- Created with Inkscape (http://www.inkscape.org/) -->

<svg
   xmlns:dc="http://purl.org/dc/elements/1.1/"
   xmlns:cc="http://creativecommons.org/ns#"
   xmlns:rdf="http://www.w3.org/1999/02/22-rdf-syntax-ns#"
   xmlns:svg="http://www.w3.org/2000/svg"
   xmlns="http://www.w3.org/2000/svg"
   xmlns:sodipodi="http://sodipodi.sourceforge.net/DTD/sodipodi-0.dtd"
   xmlns:inkscape="http://www.inkscape.org/namespaces/inkscape"
   width="800"
   height="60"
   id="svg3970"
   version="1.1"
   inkscape:version="0.48.4 r9939"
   sodipodi:docname="naivesound-line-v2.svg"
   inkscape:export-filename="/tmp/naivesound-line.png"
   inkscape:export-xdpi="90"
   inkscape:export-ydpi="90">
  <defs
     id="defs3972" />
  <sodipodi:namedview
     id="base"
     pagecolor="#ffffff"
     bordercolor="#666666"
     borderopacity="1.0"
     inkscape:pageopacity="0"
     inkscape:pageshadow="2"
     inkscape:zoom="2.8284271"
     inkscape:cx="208.79471"
     inkscape:cy="40.291179"
     inkscape:document-units="px"
     inkscape:current-layer="layer1"
     showgrid="false"
     showguides="true"
     inkscape:guide-bbox="true"
     inkscape:window-width="1317"
     inkscape:window-height="744"
     inkscape:window-x="49"
     inkscape:window-y="24"
     inkscape:window-maximized="1"
     inkscape:snap-global="false">
    <sodipodi:guide
       orientation="1,0"
       position="400,332.85714"
       id="guide3985" />
    <sodipodi:guide
       orientation="0,1"
       position="83.169643,30"
       id="guide3878" />
  </sodipodi:namedview>
  <metadata
     id="metadata3975">
    <rdf:RDF>
      <cc:Work
         rdf:about="">
        <dc:format>image/svg+xml</dc:format>
        <dc:type
           rdf:resource="http://purl.org/dc/dcmitype/StillImage" />
        <dc:title></dc:title>
      </cc:Work>
    </rdf:RDF>
  </metadata>
  <g
     inkscape:label="Layer 1"
     inkscape:groupmode="layer"
     id="layer1"
     transform="translate(0,-992.3622)">
    <path
       inkscape:connector-curvature="0"
       id="path4500"
       d="m 0,1022.3751 126.28714,-0.01 c 1.09822,0 3.61266,-0.1466 3.61266,-4.2855 0,0 -0.26863,-2 2,-2 2.26863,0 2,2 2,2 l 0,10.5511 c 0,0 -0.0477,2 2,2 2.0477,0 2,-2 2,-2 l 0,-14.5511 c 0,0 -0.25531,-2 2,-2 2.25531,0 2,2 2,2 l 0,16.5511 c 0,0 -0.19281,2 2,2 2.19281,0 2,-2 2,-2 l 0,-14.5511 c 0,0 -0.31283,-2 2,-2 2.31283,0 2,2 2,2 l 0,10.5511 c 0,0 -0.22444,2 2,2 2.22444,0 2,-2 2,-2 l 0,-4.5511 c 0,0 -0.13031,-2 2,-2 2.13031,0 2,2 2,2 l 0,6.5511 c 0,0 -0.15815,2 2,2 2.15815,0 2,-2 2,-2 l 0,-18.5511 c 0,0 -0.14861,-2 2,-2 2.14861,0 2,2 2,2 l 0,24.5511 c 0,0 -0.12365,2 2,2 2.12365,0 1.9671,-2.01 2,-2 l 0,-20.5511 c 0,0 -0.25531,-2 2,-2 2.25531,0 2,2 2,2 l 0,16.5511 c 0,0 -0.26042,2 2,2 2.26042,0 2,-2 2,-2 l 0,-34.55115 c 0,0 -0.28656,-2 2,-2 2.28656,0 2,2 2,2 l 0,52.55115 c 0,0 -0.0991,2 2,2 2.09906,0 2,-2 2,-2 l 0,-42.5511 c 0,0 -0.13031,-2 2,-2 2.13031,0 2,2 2,2 0,4.1837 0,28.3674 0,32.5511 0,0 -0.28656,2 2,2 2.28656,0 2,-2 2,-2 l 0,-24.5511 c 0,0 -0.13031,-2 2,-2 2.13031,0 2,2 2,2 l 0,16.5511 c 0,0 -0.16156,2 2,2 2.16156,0 2,-2 2,-2 l 0,-14.5511 c 0,0 -0.0991,-2 2,-2 2.09906,0 2,2 2,2 l 0,12.5511 c 0,0 -0.22406,2 2,2 2.22406,0 2,-2 2,-2 l 0,-8.5511 c 0,0 -0.19281,-2 2,-2 2.19281,0 2,2 2,2 0.0568,2.692 2.53272,2.2885 3.0501,2.2885 L 800,1022.3811"
       style="fill:none;stroke:#ffffff;stroke-width:3;stroke-linecap:butt;stroke-linejoin:miter;stroke-miterlimit:4;stroke-opacity:0.9;stroke-dasharray:none;vector-effect:non-scaling-stroke"
       sodipodi:nodetypes="ccczcczcczcczcczcczcczcczcczcczcczcczcczcczcczcczcczcczcczcczcczccc" />
  </g>
</svg>
