<?xml version="1.0" encoding="UTF-8" standalone="no"?>
<!-- Created with Inkscape (http://www.inkscape.org/) -->

<svg
   xmlns:dc="http://purl.org/dc/elements/1.1/"
   xmlns:cc="http://creativecommons.org/ns#"
   xmlns:rdf="http://www.w3.org/1999/02/22-rdf-syntax-ns#"
   xmlns:svg="http://www.w3.org/2000/svg"
   xmlns="http://www.w3.org/2000/svg"
   xmlns:sodipodi="http://sodipodi.sourceforge.net/DTD/sodipodi-0.dtd"
   xmlns:inkscape="http://www.inkscape.org/namespaces/inkscape"
   width="170.97324mm"
   height="75.289261mm"
   viewBox="0 0 605.81068 266.77297"
   id="svg25779"
   version="1.1"
   inkscape:version="0.91 r13725"
   sodipodi:docname="title.svg">
  <defs
     id="defs25781" />
  <sodipodi:namedview
     id="base"
     pagecolor="#ffffff"
     bordercolor="#666666"
     borderopacity="1.0"
     inkscape:pageopacity="0.0"
     inkscape:pageshadow="2"
     inkscape:zoom="0.98994949"
     inkscape:cx="302.90534"
     inkscape:cy="133.38649"
     inkscape:document-units="px"
     inkscape:current-layer="layer1"
     showgrid="false"
     fit-margin-top="0"
     fit-margin-left="0"
     fit-margin-right="0"
     fit-margin-bottom="0"
     inkscape:window-width="1317"
     inkscape:window-height="744"
     inkscape:window-x="49"
     inkscape:window-y="24"
     inkscape:window-maximized="1" />
  <metadata
     id="metadata25784">
    <rdf:RDF>
      <cc:Work
         rdf:about="">
        <dc:format>image/svg+xml</dc:format>
        <dc:type
           rdf:resource="http://purl.org/dc/dcmitype/StillImage" />
        <dc:title></dc:title>
      </cc:Work>
    </rdf:RDF>
  </metadata>
  <g
     inkscape:label="Layer 1"
     inkscape:groupmode="layer"
     id="layer1"
     transform="translate(149.93473,-673.74887)">
    <path
       style="fill:none;fill-rule:evenodd;stroke:#f54123;stroke-width:5.00000048;stroke-linecap:butt;stroke-linejoin:miter;stroke-miterlimit:4;stroke-dasharray:none;stroke-opacity:1"
       d="m -9.6475323,837.96427 0.18753,-161.69249 C -71.599802,675.12003 -128.95297,717.54997 -143.8081,778.41856 c -16.58764,67.96755 25.31361,139.6882 93.812318,156.22068 64.71261,15.61873 132.94907,-24.34386 148.49245,-89.61337 14.603512,-61.32303 -23.3445,-125.93156 -85.25466,-140.43372 -57.77865,-13.53442 -118.594388,22.31258 -131.993278,80.71428 -12.40129,54.05348 21.245088,110.88488 75.965388,123.10451 50.1129497,11.19078 102.73387,-20.13851 113.66571,-70.70995 z"
       id="path25718"
       inkscape:connector-curvature="0"
       sodipodi:nodetypes="ccsssssscc" />
    <path
       inkscape:export-ydpi="90"
       inkscape:export-xdpi="90"
       sodipodi:nodetypes="ccccccc"
       inkscape:connector-curvature="0"
       id="path25721"
       d="m 130.86287,725.91972 0,196.17344 39.09247,0 0,-118.67832 80.48455,0.28747 -41.39207,0 0,120.2094"
       style="fill:none;fill-opacity:0.64824123;fill-rule:evenodd;stroke:#f1f2f0;stroke-width:5.00000048;stroke-linecap:butt;stroke-linejoin:miter;stroke-miterlimit:4;stroke-dasharray:none;stroke-opacity:1" />
    <circle
       inkscape:export-ydpi="90"
       inkscape:export-xdpi="90"
       r="13.797352"
       cy="768.92163"
       cx="169.95534"
       id="circle25723"
       style="opacity:1;fill:none;fill-opacity:1;stroke:#f1f2f0;stroke-width:5.00000048;stroke-linecap:square;stroke-linejoin:round;stroke-miterlimit:4;stroke-dasharray:none;stroke-opacity:1" />
    <path
       inkscape:export-ydpi="90"
       inkscape:export-xdpi="90"
       sodipodi:nodetypes="cc"
       inkscape:connector-curvature="0"
       id="path25725"
       d="m 208.61261,726.14966 0,76.69024"
       style="fill:none;fill-rule:evenodd;stroke:#f1f2f0;stroke-width:5.00000048;stroke-linecap:butt;stroke-linejoin:miter;stroke-miterlimit:4;stroke-dasharray:none;stroke-opacity:1" />
    <path
       inkscape:export-ydpi="90"
       inkscape:export-xdpi="90"
       sodipodi:nodetypes="cccc"
       inkscape:connector-curvature="0"
       id="path25727"
       d="m 453.37595,923.50927 0,-120.09443 -55.1894,0 0,-77.72506"
       style="fill:none;fill-rule:evenodd;stroke:#f1f2f0;stroke-width:5.00000048;stroke-linecap:butt;stroke-linejoin:miter;stroke-miterlimit:4;stroke-dasharray:none;stroke-opacity:1" />
    <path
       style="fill:none;fill-rule:evenodd;stroke:#ffeb00;stroke-width:5.00000048;stroke-linecap:butt;stroke-linejoin:miter;stroke-miterlimit:4;stroke-dasharray:none;stroke-opacity:1"
       d="m 275.17748,874.38391 c -7.40748,-25.47728 8.56227,-52.3386 33.78857,-59.48796 27.4129,-7.7691 56.2262,9.44771 63.7731,36.61795 8.1234,29.2459 -10.2749,59.91428 -39.2859,67.84254 -30.9922,8.4697 -63.43285,-11.05445 -71.7283,-41.81903 -8.80761,-32.66394 11.79428,-66.80475 44.2374,-75.45493 7.7458,-2.06522 15.8715,-3.06197 24.1442,-2.37814 l 0.1635,105.88911 c -23.5652,6.59188 -48.3596,-8.05238 -55.09257,-31.20954 z"
       id="path25741"
       inkscape:connector-curvature="0"
       sodipodi:nodetypes="ssssssccs" />
  </g>
</svg>
