<?xml version="1.0" encoding="UTF-8" standalone="no"?>
<!-- Created with Inkscape (http://www.inkscape.org/) -->

<svg
   xmlns:dc="http://purl.org/dc/elements/1.1/"
   xmlns:cc="http://creativecommons.org/ns#"
   xmlns:rdf="http://www.w3.org/1999/02/22-rdf-syntax-ns#"
   xmlns:svg="http://www.w3.org/2000/svg"
   xmlns="http://www.w3.org/2000/svg"
   xmlns:sodipodi="http://sodipodi.sourceforge.net/DTD/sodipodi-0.dtd"
   xmlns:inkscape="http://www.inkscape.org/namespaces/inkscape"
   width="621"
   height="400"
   viewBox="0 0 620.99998 399.99995"
   id="svg6973"
   version="1.1"
   inkscape:version="0.91 r13725"
   sodipodi:docname="math.svg">
  <defs
     id="defs6975" />
  <sodipodi:namedview
     id="base"
     pagecolor="#ffffff"
     bordercolor="#666666"
     borderopacity="1.0"
     inkscape:pageopacity="0.0"
     inkscape:pageshadow="2"
     inkscape:zoom="0.12374369"
     inkscape:cx="-2340.7424"
     inkscape:cy="1604.4733"
     inkscape:document-units="px"
     inkscape:current-layer="layer1"
     showgrid="false"
     fit-margin-left="10"
     fit-margin-right="10"
     fit-margin-top="0"
     fit-margin-bottom="0"
     inkscape:window-width="1317"
     inkscape:window-height="744"
     inkscape:window-x="49"
     inkscape:window-y="24"
     inkscape:window-maximized="1"
     units="px" />
  <metadata
     id="metadata6978">
    <rdf:RDF>
      <cc:Work
         rdf:about="">
        <dc:format>image/svg+xml</dc:format>
        <dc:type
           rdf:resource="http://purl.org/dc/dcmitype/StillImage" />
        <dc:title></dc:title>
      </cc:Work>
    </rdf:RDF>
  </metadata>
  <g
     inkscape:label="Layer 1"
     inkscape:groupmode="layer"
     id="layer1"
     transform="translate(1525.4734,-632.07558)">
    <g
       id="g5222"
       transform="translate(-1516.4734,623.06541)">
      <path
         inkscape:connector-curvature="0"
         id="path8810"
         d="M 16,9.0101525 16,409.01015"
         style="fill:none;fill-rule:evenodd;stroke:#777777;stroke-width:2;stroke-linecap:butt;stroke-linejoin:miter;stroke-miterlimit:4;stroke-dasharray:none;stroke-opacity:0.09411765" />
      <path
         style="fill:none;fill-rule:evenodd;stroke:#777777;stroke-width:2;stroke-linecap:butt;stroke-linejoin:miter;stroke-miterlimit:4;stroke-dasharray:none;stroke-opacity:0.09411765"
         d="M 31,9.0101525 31,409.01015"
         id="path8866"
         inkscape:connector-curvature="0" />
      <path
         style="fill:none;fill-rule:evenodd;stroke:#777777;stroke-width:2;stroke-linecap:butt;stroke-linejoin:miter;stroke-miterlimit:4;stroke-dasharray:none;stroke-opacity:0.09411765"
         d="M 46,9.0101525 46,409.01015"
         id="path8868"
         inkscape:connector-curvature="0" />
      <path
         inkscape:connector-curvature="0"
         id="path8870"
         d="M 61,9.0101525 61,409.01015"
         style="fill:none;fill-rule:evenodd;stroke:#777777;stroke-width:2;stroke-linecap:butt;stroke-linejoin:miter;stroke-miterlimit:4;stroke-dasharray:none;stroke-opacity:0.09411765" />
      <path
         style="fill:none;fill-rule:evenodd;stroke:#777777;stroke-width:2;stroke-linecap:butt;stroke-linejoin:miter;stroke-miterlimit:4;stroke-dasharray:none;stroke-opacity:0.09411765"
         d="M 76,9.0101525 76,409.01015"
         id="path8872"
         inkscape:connector-curvature="0" />
      <path
         inkscape:connector-curvature="0"
         id="path8874"
         d="M 91,9.0101525 91,409.01015"
         style="fill:none;fill-rule:evenodd;stroke:#777777;stroke-width:2;stroke-linecap:butt;stroke-linejoin:miter;stroke-miterlimit:4;stroke-dasharray:none;stroke-opacity:0.09411765" />
      <path
         inkscape:connector-curvature="0"
         id="path8876"
         d="M 106,9.0101525 106,409.01015"
         style="fill:none;fill-rule:evenodd;stroke:#777777;stroke-width:2;stroke-linecap:butt;stroke-linejoin:miter;stroke-miterlimit:4;stroke-dasharray:none;stroke-opacity:0.09411765" />
      <path
         style="fill:none;fill-rule:evenodd;stroke:#777777;stroke-width:2;stroke-linecap:butt;stroke-linejoin:miter;stroke-miterlimit:4;stroke-dasharray:none;stroke-opacity:0.09411765"
         d="M 121,9.0101525 121,409.01015"
         id="path8878"
         inkscape:connector-curvature="0" />
      <path
         inkscape:connector-curvature="0"
         id="path8880"
         d="M 136,9.0101525 136,409.01015"
         style="fill:none;fill-rule:evenodd;stroke:#777777;stroke-width:2;stroke-linecap:butt;stroke-linejoin:miter;stroke-miterlimit:4;stroke-dasharray:none;stroke-opacity:0.09411765" />
      <path
         style="fill:none;fill-rule:evenodd;stroke:#777777;stroke-width:2;stroke-linecap:butt;stroke-linejoin:miter;stroke-miterlimit:4;stroke-dasharray:none;stroke-opacity:0.09411765"
         d="M 151,9.0101525 151,409.01015"
         id="path8882"
         inkscape:connector-curvature="0" />
      <path
         style="fill:none;fill-rule:evenodd;stroke:#777777;stroke-width:2;stroke-linecap:butt;stroke-linejoin:miter;stroke-miterlimit:4;stroke-dasharray:none;stroke-opacity:0.09411765"
         d="M 166,9.0101525 166,409.01015"
         id="path8884"
         inkscape:connector-curvature="0" />
      <path
         inkscape:connector-curvature="0"
         id="path8886"
         d="M 181,9.0101525 181,409.01015"
         style="fill:none;fill-rule:evenodd;stroke:#777777;stroke-width:2;stroke-linecap:butt;stroke-linejoin:miter;stroke-miterlimit:4;stroke-dasharray:none;stroke-opacity:0.09411765" />
      <path
         style="fill:none;fill-rule:evenodd;stroke:#777777;stroke-width:2;stroke-linecap:butt;stroke-linejoin:miter;stroke-miterlimit:4;stroke-dasharray:none;stroke-opacity:0.09411765"
         d="M 196,9.0101525 196,409.01015"
         id="path8888"
         inkscape:connector-curvature="0" />
      <path
         inkscape:connector-curvature="0"
         id="path8890"
         d="M 211,9.0101525 211,409.01015"
         style="fill:none;fill-rule:evenodd;stroke:#777777;stroke-width:2;stroke-linecap:butt;stroke-linejoin:miter;stroke-miterlimit:4;stroke-dasharray:none;stroke-opacity:0.09411765" />
      <path
         inkscape:connector-curvature="0"
         id="path8892"
         d="M 226,9.0101525 226,409.01015"
         style="fill:none;fill-rule:evenodd;stroke:#777777;stroke-width:2;stroke-linecap:butt;stroke-linejoin:miter;stroke-miterlimit:4;stroke-dasharray:none;stroke-opacity:0.09411765" />
      <path
         style="fill:none;fill-rule:evenodd;stroke:#777777;stroke-width:2;stroke-linecap:butt;stroke-linejoin:miter;stroke-miterlimit:4;stroke-dasharray:none;stroke-opacity:0.09411765"
         d="M 241,9.0101525 241,409.01015"
         id="path8894"
         inkscape:connector-curvature="0" />
      <path
         inkscape:connector-curvature="0"
         id="path8896"
         d="M 256,9.0101525 256,409.01015"
         style="fill:none;fill-rule:evenodd;stroke:#777777;stroke-width:2;stroke-linecap:butt;stroke-linejoin:miter;stroke-miterlimit:4;stroke-dasharray:none;stroke-opacity:0.09411765" />
      <path
         style="fill:none;fill-rule:evenodd;stroke:#777777;stroke-width:2;stroke-linecap:butt;stroke-linejoin:miter;stroke-miterlimit:4;stroke-dasharray:none;stroke-opacity:0.09411765"
         d="M 271,9.0101525 271,409.01015"
         id="path8898"
         inkscape:connector-curvature="0" />
      <path
         style="fill:none;fill-rule:evenodd;stroke:#777777;stroke-width:2;stroke-linecap:butt;stroke-linejoin:miter;stroke-miterlimit:4;stroke-dasharray:none;stroke-opacity:0.09411765"
         d="M 286,9.0101525 286,409.01015"
         id="path8900"
         inkscape:connector-curvature="0" />
      <path
         inkscape:connector-curvature="0"
         id="path8902"
         d="M 301,9.0101525 301,409.01015"
         style="fill:none;fill-rule:evenodd;stroke:#777777;stroke-width:2;stroke-linecap:butt;stroke-linejoin:miter;stroke-miterlimit:4;stroke-dasharray:none;stroke-opacity:0.09411765" />
      <path
         style="fill:none;fill-rule:evenodd;stroke:#777777;stroke-width:2;stroke-linecap:butt;stroke-linejoin:miter;stroke-miterlimit:4;stroke-dasharray:none;stroke-opacity:0.09411765"
         d="M 316,9.0101525 316,409.01015"
         id="path8904"
         inkscape:connector-curvature="0" />
      <path
         inkscape:connector-curvature="0"
         id="path8906"
         d="M 331,9.0101525 331,409.01015"
         style="fill:none;fill-rule:evenodd;stroke:#777777;stroke-width:2;stroke-linecap:butt;stroke-linejoin:miter;stroke-miterlimit:4;stroke-dasharray:none;stroke-opacity:0.09411765" />
      <path
         inkscape:connector-curvature="0"
         id="path8908"
         d="M 346,9.0101525 346,409.01015"
         style="fill:none;fill-rule:evenodd;stroke:#777777;stroke-width:2;stroke-linecap:butt;stroke-linejoin:miter;stroke-miterlimit:4;stroke-dasharray:none;stroke-opacity:0.09411765" />
      <path
         style="fill:none;fill-rule:evenodd;stroke:#777777;stroke-width:2;stroke-linecap:butt;stroke-linejoin:miter;stroke-miterlimit:4;stroke-dasharray:none;stroke-opacity:0.09411765"
         d="M 361,9.0101525 361,409.01015"
         id="path8910"
         inkscape:connector-curvature="0" />
      <path
         inkscape:connector-curvature="0"
         id="path8912"
         d="M 376,9.0101525 376,409.01015"
         style="fill:none;fill-rule:evenodd;stroke:#777777;stroke-width:2;stroke-linecap:butt;stroke-linejoin:miter;stroke-miterlimit:4;stroke-dasharray:none;stroke-opacity:0.09411765" />
      <path
         style="fill:none;fill-rule:evenodd;stroke:#777777;stroke-width:2;stroke-linecap:butt;stroke-linejoin:miter;stroke-miterlimit:4;stroke-dasharray:none;stroke-opacity:0.09411765"
         d="M 391,9.0101525 391,409.01015"
         id="path8914"
         inkscape:connector-curvature="0" />
      <path
         style="fill:none;fill-rule:evenodd;stroke:#777777;stroke-width:2;stroke-linecap:butt;stroke-linejoin:miter;stroke-miterlimit:4;stroke-dasharray:none;stroke-opacity:0.09411765"
         d="M 406,9.0101525 406,409.01015"
         id="path8916"
         inkscape:connector-curvature="0" />
      <path
         inkscape:connector-curvature="0"
         id="path8918"
         d="M 421,9.0101525 421,409.01015"
         style="fill:none;fill-rule:evenodd;stroke:#777777;stroke-width:2;stroke-linecap:butt;stroke-linejoin:miter;stroke-miterlimit:4;stroke-dasharray:none;stroke-opacity:0.09411765" />
      <path
         style="fill:none;fill-rule:evenodd;stroke:#777777;stroke-width:2;stroke-linecap:butt;stroke-linejoin:miter;stroke-miterlimit:4;stroke-dasharray:none;stroke-opacity:0.09411765"
         d="M 436,9.0101525 436,409.01015"
         id="path8920"
         inkscape:connector-curvature="0" />
      <path
         inkscape:connector-curvature="0"
         id="path8922"
         d="M 451,9.0101525 451,409.01015"
         style="fill:none;fill-rule:evenodd;stroke:#777777;stroke-width:2;stroke-linecap:butt;stroke-linejoin:miter;stroke-miterlimit:4;stroke-dasharray:none;stroke-opacity:0.09411765" />
      <path
         inkscape:connector-curvature="0"
         id="path8924"
         d="M 466,9.0101525 466,409.01015"
         style="fill:none;fill-rule:evenodd;stroke:#777777;stroke-width:2;stroke-linecap:butt;stroke-linejoin:miter;stroke-miterlimit:4;stroke-dasharray:none;stroke-opacity:0.09411765" />
      <path
         style="fill:none;fill-rule:evenodd;stroke:#777777;stroke-width:2;stroke-linecap:butt;stroke-linejoin:miter;stroke-miterlimit:4;stroke-dasharray:none;stroke-opacity:0.09411765"
         d="M 481,9.0101525 481,409.01015"
         id="path8926"
         inkscape:connector-curvature="0" />
      <path
         inkscape:connector-curvature="0"
         id="path8928"
         d="M 496,9.0101525 496,409.01015"
         style="fill:none;fill-rule:evenodd;stroke:#777777;stroke-width:2;stroke-linecap:butt;stroke-linejoin:miter;stroke-miterlimit:4;stroke-dasharray:none;stroke-opacity:0.09411765" />
      <path
         style="fill:none;fill-rule:evenodd;stroke:#777777;stroke-width:2;stroke-linecap:butt;stroke-linejoin:miter;stroke-miterlimit:4;stroke-dasharray:none;stroke-opacity:0.09411765"
         d="M 511,9.0101525 511,409.01015"
         id="path8930"
         inkscape:connector-curvature="0" />
      <path
         style="fill:none;fill-rule:evenodd;stroke:#777777;stroke-width:2;stroke-linecap:butt;stroke-linejoin:miter;stroke-miterlimit:4;stroke-dasharray:none;stroke-opacity:0.09411765"
         d="M 526,9.0101525 526,409.01015"
         id="path8932"
         inkscape:connector-curvature="0" />
      <path
         inkscape:connector-curvature="0"
         id="path8934"
         d="M 541,9.0101525 541,409.01015"
         style="fill:none;fill-rule:evenodd;stroke:#777777;stroke-width:2;stroke-linecap:butt;stroke-linejoin:miter;stroke-miterlimit:4;stroke-dasharray:none;stroke-opacity:0.09411765" />
      <path
         style="fill:none;fill-rule:evenodd;stroke:#777777;stroke-width:2;stroke-linecap:butt;stroke-linejoin:miter;stroke-miterlimit:4;stroke-dasharray:none;stroke-opacity:0.09411765"
         d="M 556,9.0101525 556,409.01015"
         id="path8936"
         inkscape:connector-curvature="0" />
      <path
         inkscape:connector-curvature="0"
         id="path8938"
         d="M 571,9.0101525 571,409.01015"
         style="fill:none;fill-rule:evenodd;stroke:#777777;stroke-width:2;stroke-linecap:butt;stroke-linejoin:miter;stroke-miterlimit:4;stroke-dasharray:none;stroke-opacity:0.09411765" />
      <path
         inkscape:connector-curvature="0"
         id="path8940"
         d="M 586,9.0101525 586,409.01015"
         style="fill:none;fill-rule:evenodd;stroke:#777777;stroke-width:2;stroke-linecap:butt;stroke-linejoin:miter;stroke-miterlimit:4;stroke-dasharray:none;stroke-opacity:0.09411765" />
      <path
         style="fill:none;fill-rule:evenodd;stroke:#777777;stroke-width:2;stroke-linecap:butt;stroke-linejoin:miter;stroke-miterlimit:4;stroke-dasharray:none;stroke-opacity:0.09411765"
         d="M 601,9.0101525 601,409.01015"
         id="path8942"
         inkscape:connector-curvature="0" />
      <path
         style="fill:none;fill-rule:evenodd;stroke:#777777;stroke-width:2;stroke-linecap:butt;stroke-linejoin:miter;stroke-miterlimit:4;stroke-dasharray:none;stroke-opacity:0.09411765"
         d="M 2,9.0101525 2,409.01015"
         id="path5078"
         inkscape:connector-curvature="0" />
    </g>
    <g
       transform="translate(-1515.4734,632.07556)"
       id="g5292">
      <path
         inkscape:connector-curvature="0"
         id="path8674"
         d="m 0,28 600,0"
         style="fill:none;fill-rule:evenodd;stroke:#777777;stroke-width:2;stroke-linecap:butt;stroke-linejoin:miter;stroke-miterlimit:4;stroke-dasharray:none;stroke-opacity:0.09547741" />
      <path
         style="fill:none;fill-rule:evenodd;stroke:#777777;stroke-width:2;stroke-linecap:butt;stroke-linejoin:miter;stroke-miterlimit:4;stroke-dasharray:none;stroke-opacity:0.09547741"
         d="m 0,58 600,0"
         id="path8678"
         inkscape:connector-curvature="0" />
      <path
         inkscape:connector-curvature="0"
         id="path8680"
         d="m 0,43 600,0"
         style="fill:none;fill-rule:evenodd;stroke:#777777;stroke-width:2;stroke-linecap:butt;stroke-linejoin:miter;stroke-miterlimit:4;stroke-dasharray:none;stroke-opacity:0.09547741" />
      <path
         inkscape:connector-curvature="0"
         id="path8682"
         d="m 0,73 600,0"
         style="fill:none;fill-rule:evenodd;stroke:#777777;stroke-width:2;stroke-linecap:butt;stroke-linejoin:miter;stroke-miterlimit:4;stroke-dasharray:none;stroke-opacity:0.09547741" />
      <path
         style="fill:none;fill-rule:evenodd;stroke:#777777;stroke-width:2;stroke-linecap:butt;stroke-linejoin:miter;stroke-miterlimit:4;stroke-dasharray:none;stroke-opacity:0.09547741"
         d="m 0,88 600,0"
         id="path8684"
         inkscape:connector-curvature="0" />
      <path
         inkscape:connector-curvature="0"
         id="path8686"
         d="m 0,103 600,0"
         style="fill:none;fill-rule:evenodd;stroke:#777777;stroke-width:2;stroke-linecap:butt;stroke-linejoin:miter;stroke-miterlimit:4;stroke-dasharray:none;stroke-opacity:0.09547741" />
      <path
         style="fill:none;fill-rule:evenodd;stroke:#777777;stroke-width:2;stroke-linecap:butt;stroke-linejoin:miter;stroke-miterlimit:4;stroke-dasharray:none;stroke-opacity:0.09547741"
         d="m 0,118 600,0"
         id="path8688"
         inkscape:connector-curvature="0" />
      <path
         inkscape:connector-curvature="0"
         id="path8690"
         d="m 0,133 600,0"
         style="fill:none;fill-rule:evenodd;stroke:#777777;stroke-width:2;stroke-linecap:butt;stroke-linejoin:miter;stroke-miterlimit:4;stroke-dasharray:none;stroke-opacity:0.09547741" />
      <path
         style="fill:none;fill-rule:evenodd;stroke:#777777;stroke-width:2;stroke-linecap:butt;stroke-linejoin:miter;stroke-miterlimit:4;stroke-dasharray:none;stroke-opacity:0.09547741"
         d="m 0,148 600,0"
         id="path8692"
         inkscape:connector-curvature="0" />
      <path
         inkscape:connector-curvature="0"
         id="path8694"
         d="m 0,178 600,0"
         style="fill:none;fill-rule:evenodd;stroke:#777777;stroke-width:2;stroke-linecap:butt;stroke-linejoin:miter;stroke-miterlimit:4;stroke-dasharray:none;stroke-opacity:0.09547741" />
      <path
         style="fill:none;fill-rule:evenodd;stroke:#777777;stroke-width:2;stroke-linecap:butt;stroke-linejoin:miter;stroke-miterlimit:4;stroke-dasharray:none;stroke-opacity:0.09547741"
         d="m 0,163 600,0"
         id="path8696"
         inkscape:connector-curvature="0" />
      <path
         style="fill:none;fill-rule:evenodd;stroke:#777777;stroke-width:2;stroke-linecap:butt;stroke-linejoin:miter;stroke-miterlimit:4;stroke-dasharray:none;stroke-opacity:0.09547741"
         d="m 0,193 600,0"
         id="path8698"
         inkscape:connector-curvature="0" />
      <path
         inkscape:connector-curvature="0"
         id="path8700"
         d="m 0,208 600,0"
         style="fill:none;fill-rule:evenodd;stroke:#777777;stroke-width:2;stroke-linecap:butt;stroke-linejoin:miter;stroke-miterlimit:4;stroke-dasharray:none;stroke-opacity:0.09547741" />
      <path
         style="fill:none;fill-rule:evenodd;stroke:#777777;stroke-width:2;stroke-linecap:butt;stroke-linejoin:miter;stroke-miterlimit:4;stroke-dasharray:none;stroke-opacity:0.09547741"
         d="m 0,223 600,0"
         id="path8702"
         inkscape:connector-curvature="0" />
      <path
         inkscape:connector-curvature="0"
         id="path8704"
         d="m 0,238 600,0"
         style="fill:none;fill-rule:evenodd;stroke:#777777;stroke-width:2;stroke-linecap:butt;stroke-linejoin:miter;stroke-miterlimit:4;stroke-dasharray:none;stroke-opacity:0.09547741" />
      <path
         style="fill:none;fill-rule:evenodd;stroke:#777777;stroke-width:2;stroke-linecap:butt;stroke-linejoin:miter;stroke-miterlimit:4;stroke-dasharray:none;stroke-opacity:0.09547741"
         d="m 0,253 600,0"
         id="path8706"
         inkscape:connector-curvature="0" />
      <path
         inkscape:connector-curvature="0"
         id="path8708"
         d="m 0,268 600,0"
         style="fill:none;fill-rule:evenodd;stroke:#777777;stroke-width:2;stroke-linecap:butt;stroke-linejoin:miter;stroke-miterlimit:4;stroke-dasharray:none;stroke-opacity:0.09547741" />
      <path
         style="fill:none;fill-rule:evenodd;stroke:#777777;stroke-width:2;stroke-linecap:butt;stroke-linejoin:miter;stroke-miterlimit:4;stroke-dasharray:none;stroke-opacity:0.09547741"
         d="m 0,283 600,0"
         id="path8710"
         inkscape:connector-curvature="0" />
      <path
         inkscape:connector-curvature="0"
         id="path8712"
         d="m 0,298 600,0"
         style="fill:none;fill-rule:evenodd;stroke:#777777;stroke-width:2;stroke-linecap:butt;stroke-linejoin:miter;stroke-miterlimit:4;stroke-dasharray:none;stroke-opacity:0.09547741" />
      <path
         style="fill:none;fill-rule:evenodd;stroke:#777777;stroke-width:2;stroke-linecap:butt;stroke-linejoin:miter;stroke-miterlimit:4;stroke-dasharray:none;stroke-opacity:0.09547741"
         d="m 0,328 600,0"
         id="path8714"
         inkscape:connector-curvature="0" />
      <path
         inkscape:connector-curvature="0"
         id="path8716"
         d="m 0,313 600,0"
         style="fill:none;fill-rule:evenodd;stroke:#777777;stroke-width:2;stroke-linecap:butt;stroke-linejoin:miter;stroke-miterlimit:4;stroke-dasharray:none;stroke-opacity:0.09547741" />
      <path
         inkscape:connector-curvature="0"
         id="path8718"
         d="m 0,343 600,0"
         style="fill:none;fill-rule:evenodd;stroke:#777777;stroke-width:2;stroke-linecap:butt;stroke-linejoin:miter;stroke-miterlimit:4;stroke-dasharray:none;stroke-opacity:0.09547741" />
      <path
         style="fill:none;fill-rule:evenodd;stroke:#777777;stroke-width:2;stroke-linecap:butt;stroke-linejoin:miter;stroke-miterlimit:4;stroke-dasharray:none;stroke-opacity:0.09547741"
         d="m 0,358 600,0"
         id="path8720"
         inkscape:connector-curvature="0" />
      <path
         inkscape:connector-curvature="0"
         id="path8722"
         d="m 0,373 600,0"
         style="fill:none;fill-rule:evenodd;stroke:#777777;stroke-width:2;stroke-linecap:butt;stroke-linejoin:miter;stroke-miterlimit:4;stroke-dasharray:none;stroke-opacity:0.09547741" />
      <path
         style="fill:none;fill-rule:evenodd;stroke:#777777;stroke-width:2;stroke-linecap:butt;stroke-linejoin:miter;stroke-miterlimit:4;stroke-dasharray:none;stroke-opacity:0.09547741"
         d="m 0,388 600,0"
         id="path8724"
         inkscape:connector-curvature="0" />
      <path
         style="fill:none;fill-rule:evenodd;stroke:#777777;stroke-width:2;stroke-linecap:butt;stroke-linejoin:miter;stroke-miterlimit:4;stroke-dasharray:none;stroke-opacity:0.09547741"
         d="m 0,14 600,0"
         id="path4870"
         inkscape:connector-curvature="0" />
    </g>
    <text
       sodipodi:linespacing="125%"
       id="text7676"
       y="671.98773"
       x="-1264.7603"
       style="font-style:normal;font-weight:normal;font-size:30px;line-height:125%;font-family:sans-serif;letter-spacing:0px;word-spacing:0px;fill:#37bbe4;fill-opacity:1;stroke:none;stroke-width:1px;stroke-linecap:butt;stroke-linejoin:miter;stroke-opacity:1"
       xml:space="preserve"><tspan
         style="font-style:normal;font-variant:normal;font-weight:300;font-stretch:normal;font-size:30px;font-family:'Josefin Sans';-inkscape-font-specification:'Josefin Sans Light';fill:#37bbe4;fill-opacity:1"
         y="671.98773"
         x="-1264.7603"
         id="tspan7678"
         sodipodi:role="line">bpm=120</tspan></text>
    <text
       sodipodi:linespacing="125%"
       id="text9296"
       y="698.23645"
       x="-1073.6404"
       style="font-style:normal;font-weight:normal;font-size:30px;line-height:125%;font-family:sans-serif;letter-spacing:0px;word-spacing:0px;fill:#de3d83;fill-opacity:1;stroke:none;stroke-width:1px;stroke-linecap:butt;stroke-linejoin:miter;stroke-opacity:1"
       xml:space="preserve"><tspan
         style="font-style:normal;font-variant:normal;font-weight:300;font-stretch:normal;font-size:30px;font-family:'Josefin Sans';-inkscape-font-specification:'Josefin Sans Light';fill:#de3d83;fill-opacity:1"
         y="698.23645"
         x="-1073.6404"
         id="tspan9298"
         sodipodi:role="line">z = sin(f)</tspan></text>
    <path
       style="fill:none;fill-rule:evenodd;stroke:#37bbe4;stroke-width:2;stroke-linecap:butt;stroke-linejoin:miter;stroke-miterlimit:4;stroke-dasharray:none;stroke-opacity:1"
       d="m -1098.2743,830.08506 c 0,0 -2.1942,-103.96222 8.9593,-103.96222 11.1535,0 8.9593,103.96222 8.9593,103.96222 0,0 0.031,62.37734 8.9593,62.37734 8.9288,0 8.9594,-62.37734 8.9594,-62.37734 0,0 -0.4946,-62.37734 8.9593,-62.37734 9.4539,0 8.9593,62.37734 8.9593,62.37734 0,0 0.8873,20.79243 8.9593,20.79243 8.0719,0 8.9594,-20.79243 8.9594,-20.79243 0,0 1.4124,-20.79245 8.9593,-20.79245 7.5468,0 8.9593,20.79245 8.9593,20.79245 0,0 0.5556,41.58489 8.95931,41.58489 8.4037,0 8.9594,-41.58489 8.9594,-41.58489 0,0 1.687,-14.55473 8.9593,-14.55473 7.2723,0 8.9593,14.55473 8.9593,14.55473 0,0 3.2622,14.55472 8.9594,14.55472 5.697,0 9.2012,-14.96901 9.2012,-14.96901"
       id="path9904"
       inkscape:connector-curvature="0"
       sodipodi:nodetypes="cczczczczczczczcc" />
    <path
       sodipodi:nodetypes="cczzcczcczcczczczccsscc"
       inkscape:connector-curvature="0"
       id="path9946"
       d="m -1474.1241,829.46215 c 0,0 0.9705,21.05819 8.5173,21.05819 7.5469,0 8.9594,-20.79243 8.9594,-20.79243 0,0 0.8676,-21.03116 9.1767,-20.77657 8.3091,0.25461 8.7419,20.77657 8.7419,20.77657 0,0 0.7203,41.58488 8.9593,41.58488 8.239,0 8.9594,-41.58488 8.9594,-41.58488 0,0 0.5774,-63.11993 8.9592,-62.37733 8.3819,0.74255 8.9594,62.37733 8.9594,62.37733 0.3844,10.87277 -1.0554,83.18576 8.9592,83.16975 10.0146,-0.0156 9.0655,-69.5135 8.9593,-83.16975 0,0 0.6699,-20.79246 8.9594,-20.79246 8.2894,0 8.9593,20.79246 8.9593,20.79246 0,0 2.2055,41.58488 8.9593,41.58488 6.7538,0 8.9593,-41.58488 8.9593,-41.58488 0,0 0.7204,-41.58491 8.9594,-41.58491 8.2389,0 8.9593,41.58491 8.9593,41.58491 0,0 -0.1587,28.14405 -0.024,61.18916 0.5939,38.24327 1.3546,63.56545 2.7334,79.15979 1.3789,15.59433 3.3759,25.99057 6.2501,25.99057 2.8742,0 4.8712,-10.39624 6.2501,-25.99057 1.3788,-15.59434 2.1395,-40.54524 2.7335,-78.86275 0.1342,-33.11938 -0.024,-61.4862 -0.024,-61.4862"
       style="fill:none;fill-rule:evenodd;stroke:#ffeb00;stroke-width:2;stroke-linecap:butt;stroke-linejoin:miter;stroke-miterlimit:4;stroke-dasharray:none;stroke-opacity:1" />
    <path
       sodipodi:nodetypes="czczcccccczczczczczczczcczc"
       inkscape:connector-curvature="0"
       id="path9948"
       d="m -1313.2981,829.72791 c 0.3028,-32.91532 -1.0437,-124.57213 8.9593,-124.7547 10.0029,-0.18257 8.9078,92.37295 8.9593,124.7547 -0.2539,23.10756 1.6632,61.45856 8.9593,61.31682 7.2962,-0.1417 9.0433,-35.81238 8.9594,-57.31681 m 0,-8 c 0,0 -1.4546,-58.37734 8.9593,-58.37734 10.414,0 8.9594,58.37734 8.9594,58.37734 m 0,8 c 0,0 -0.01,17.00992 8.9593,16.79243 8.9683,-0.21747 8.9593,-20.79243 8.9593,-20.79243 0,0 1.9375,-20.79245 9.4844,-20.79245 7.5469,0 8.4342,20.79245 8.4342,20.79245 0,0 0.03,41.58489 8.9594,41.58489 8.9288,0 8.9593,-41.58489 8.9593,-41.58489 0,0 -0.4946,-41.0598 8.9593,-41.58489 9.4539,-0.5251 8.9593,41.58489 8.9593,41.58489 0,0 0.03,41.05979 8.9593,41.58489 8.9289,0.52507 8.9594,-41.58489 8.9594,-41.58489 0,0 -1.5448,-62.37734 8.9593,-62.37734 10.504,0 8.9593,62.37734 8.9593,62.37734 0,0 0.3623,20.79243 8.9593,20.79243 8.5971,0 8.9594,-20.79243 8.9594,-20.79243 0,0 1.4124,-20.79245 8.9593,-20.79245 7.5468,0 8.9593,20.79245 8.9593,20.79245 0.4642,38.22596 -3.1462,121.86961 8.9593,121.89569 12.1056,0.0261 8.9593,-121.89569 8.9593,-121.89569"
       style="fill:none;fill-rule:evenodd;stroke:#f54123;stroke-width:2;stroke-linecap:butt;stroke-linejoin:miter;stroke-miterlimit:4;stroke-dasharray:none;stroke-opacity:1" />
    <text
       xml:space="preserve"
       style="font-style:normal;font-weight:normal;font-size:30px;line-height:125%;font-family:sans-serif;letter-spacing:0px;word-spacing:0px;fill:#ffeb00;fill-opacity:1;stroke:none;stroke-width:1px;stroke-linecap:butt;stroke-linejoin:miter;stroke-opacity:1"
       x="-1469.9053"
       y="969.82135"
       id="text9950"
       sodipodi:linespacing="125%"><tspan
         sodipodi:role="line"
         id="tspan9952"
         x="-1469.9053"
         y="969.82135"
         style="font-style:normal;font-variant:normal;font-weight:300;font-stretch:normal;font-size:30px;font-family:'Josefin Sans';-inkscape-font-specification:'Josefin Sans Light';fill:#ffeb00;fill-opacity:1">A3</tspan></text>
    <text
       xml:space="preserve"
       style="font-style:normal;font-weight:normal;font-size:30px;line-height:125%;font-family:sans-serif;letter-spacing:0px;word-spacing:0px;fill:#37bbe4;fill-opacity:1;stroke:none;stroke-width:1px;stroke-linecap:butt;stroke-linejoin:miter;stroke-opacity:1"
       x="-984.00977"
       y="965.59875"
       id="text9958"
       sodipodi:linespacing="125%"><tspan
         sodipodi:role="line"
         id="tspan9960"
         x="-984.00977"
         y="965.59875"
         style="font-style:normal;font-variant:normal;font-weight:300;font-stretch:normal;font-size:30px;font-family:'Josefin Sans';-inkscape-font-specification:'Josefin Sans Light';fill:#37bbe4;fill-opacity:1">E4</tspan></text>
    <rect
       style="opacity:1;fill:none;fill-opacity:1;stroke:#777777;stroke-width:2.02493334;stroke-linecap:square;stroke-linejoin:round;stroke-miterlimit:4;stroke-dasharray:none;stroke-opacity:0.09411765"
       id="rect5179"
       width="597.9751"
       height="397.97507"
       x="-1514.4609"
       y="633.08801"
       ry="1.0469593" />
    <text
       xml:space="preserve"
       style="font-style:normal;font-weight:normal;font-size:30px;line-height:125%;font-family:sans-serif;letter-spacing:0px;word-spacing:0px;fill:#3dbd5d;fill-opacity:1;stroke:none;stroke-width:1px;stroke-linecap:butt;stroke-linejoin:miter;stroke-opacity:1"
       x="-1209.9163"
       y="1020.0259"
       id="text5320"
       sodipodi:linespacing="125%"><tspan
         sodipodi:role="line"
         id="tspan5322"
         x="-1209.9163"
         y="1020.0259"
         style="font-style:normal;font-variant:normal;font-weight:300;font-stretch:normal;font-size:30px;font-family:'Josefin Sans';-inkscape-font-specification:'Josefin Sans Light';fill:#3dbd5d;fill-opacity:1">f = hz(C#4)</tspan></text>
    <path
       style="fill:none;fill-rule:evenodd;stroke:#f1f2f0;stroke-width:2;stroke-linecap:butt;stroke-linejoin:miter;stroke-miterlimit:4;stroke-dasharray:none;stroke-opacity:1"
       d="m -1281.902,830.28984 26.0714,0"
       id="path5324"
       inkscape:connector-curvature="0" />
    <path
       style="fill:none;fill-rule:evenodd;stroke:#f1f2f0;stroke-width:2;stroke-linecap:butt;stroke-linejoin:miter;stroke-miterlimit:4;stroke-dasharray:none;stroke-opacity:1"
       d="m -1281.902,826.00413 0,8.21429"
       id="path5326"
       inkscape:connector-curvature="0" />
    <path
       inkscape:connector-curvature="0"
       id="path5328"
       d="m -1255.902,826.00413 0,8.21429"
       style="fill:none;fill-rule:evenodd;stroke:#f1f2f0;stroke-width:2;stroke-linecap:butt;stroke-linejoin:miter;stroke-miterlimit:4;stroke-dasharray:none;stroke-opacity:1" />
    <path
       style="fill:none;fill-rule:evenodd;stroke:#f1f2f0;stroke-width:2;stroke-linecap:butt;stroke-linejoin:miter;stroke-miterlimit:4;stroke-dasharray:none;stroke-opacity:1"
       d="m -1222.5537,1006.888 0,8.2143"
       id="path5334"
       inkscape:connector-curvature="0" />
    <path
       style="fill:none;fill-rule:evenodd;stroke:#f1f2f0;stroke-width:2;stroke-linecap:butt;stroke-linejoin:miter;stroke-miterlimit:4;stroke-dasharray:none;stroke-opacity:1"
       d="m -1268.9962,831.63385 0,169.70055 c 0,0 -0.2864,5.4141 2,7.7005 2.3603,2.3604 8.0141,2 8.0141,2 l 35.4428,0"
       id="path5336"
       inkscape:connector-curvature="0"
       sodipodi:nodetypes="ccscc" />
    <path
       style="fill:none;fill-rule:evenodd;stroke:#f1f2f0;stroke-width:2;stroke-linecap:butt;stroke-linejoin:miter;stroke-miterlimit:4;stroke-dasharray:none;stroke-opacity:1"
       d="m -1317.3563,658.71842 0,36.73966"
       id="path5344"
       inkscape:connector-curvature="0"
       sodipodi:nodetypes="cc" />
    <path
       inkscape:connector-curvature="0"
       id="path5346"
       d="m -1096.3461,658.71842 0,56.21428"
       style="fill:none;fill-rule:evenodd;stroke:#f1f2f0;stroke-width:2;stroke-linecap:butt;stroke-linejoin:miter;stroke-miterlimit:4;stroke-dasharray:none;stroke-opacity:1"
       sodipodi:nodetypes="cc" />
    <path
       sodipodi:nodetypes="cccc"
       inkscape:connector-curvature="0"
       id="path5348"
       d="m -1317.3969,662.78984 30.4285,0 m 160,0 30.9337,0"
       style="fill:none;fill-rule:evenodd;stroke:#f1f2f0;stroke-width:2;stroke-linecap:butt;stroke-linejoin:miter;stroke-miterlimit:4;stroke-dasharray:none;stroke-opacity:1" />
    <path
       style="opacity:1;fill:none;fill-opacity:1;stroke:#f1f2f0;stroke-width:2;stroke-linecap:round;stroke-linejoin:round;stroke-miterlimit:4;stroke-dasharray:none;stroke-opacity:1"
       d="m -951.98399,919.62897 c 4.5027,1.99632 8.5396,4.84248 11.911,8.33172 3.3714,3.48922 6.0773,7.62153 7.9178,12.19015 1.8405,4.5686 2.8157,9.57354 2.7258,14.80802 -0.3596,20.93791 -17.6247,37.61992 -38.5626,37.26029 -20.9379,-0.35963 -37.61991,-17.62471 -37.26031,-38.56262 0.09,-5.23448 1.2364,-10.20296 3.2327,-14.70568 1.9963,-4.50271 4.84251,-8.53965 8.33171,-11.91104 3.4893,-3.37139 7.6216,-6.07725 12.1902,-7.91777"
       id="path8653"
       inkscape:connector-curvature="0"
       sodipodi:nodetypes="csssssssc" />
    <path
       style="fill:none;fill-rule:evenodd;stroke:#f1f2f0;stroke-width:2;stroke-linecap:butt;stroke-linejoin:miter;stroke-miterlimit:4;stroke-dasharray:none;stroke-opacity:1"
       d="m -1031.8841,856.32558 -8.2143,0"
       id="path6271"
       inkscape:connector-curvature="0"
       sodipodi:nodetypes="cc" />
    <path
       inkscape:connector-curvature="0"
       id="path6273"
       d="m -962.86629,930.32558 -8.2143,0"
       style="fill:none;fill-rule:evenodd;stroke:#f1f2f0;stroke-width:2;stroke-linecap:butt;stroke-linejoin:miter;stroke-miterlimit:4;stroke-dasharray:none;stroke-opacity:1"
       sodipodi:nodetypes="cc" />
    <text
       sodipodi:linespacing="125%"
       id="text9954"
       y="937.64948"
       x="-1219.6555"
       style="font-style:normal;font-weight:normal;font-size:30px;line-height:125%;font-family:sans-serif;letter-spacing:0px;word-spacing:0px;fill:#f54123;fill-opacity:1;stroke:none;stroke-width:1px;stroke-linecap:butt;stroke-linejoin:miter;stroke-opacity:1"
       xml:space="preserve"><tspan
         style="font-style:normal;font-variant:normal;font-weight:300;font-stretch:normal;font-size:30px;font-family:'Josefin Sans';-inkscape-font-specification:'Josefin Sans Light';fill:#f54123;fill-opacity:1"
         y="937.64948"
         x="-1219.6555"
         id="tspan9956"
         sodipodi:role="line">C#4</tspan></text>
    <path
       sodipodi:nodetypes="csssssssc"
       inkscape:connector-curvature="0"
       id="path6275"
       d="m -1158.5462,911.04221 c -1.9963,-4.50271 -4.8424,-8.53966 -8.3317,-11.91106 -3.4892,-3.37139 -7.6215,-6.07723 -12.1901,-7.91775 -4.5686,-1.84053 -9.5736,-2.81571 -14.808,-2.72581 -20.938,0.35963 -37.62,17.6247 -37.2603,38.56262 0.3596,20.93791 17.6247,37.61991 38.5626,37.26029 5.2345,-0.0899 10.2029,-1.2364 14.7057,-3.23274 4.5027,-1.99632 8.5396,-4.84248 11.911,-8.33171 3.3714,-3.48923 6.0773,-7.62154 7.9178,-12.19015"
       style="opacity:1;fill:none;fill-opacity:1;stroke:#f1f2f0;stroke-width:2;stroke-linecap:round;stroke-linejoin:round;stroke-miterlimit:4;stroke-dasharray:none;stroke-opacity:1" />
    <path
       style="fill:none;fill-rule:evenodd;stroke:#f1f2f0;stroke-width:2;stroke-linecap:butt;stroke-linejoin:miter;stroke-miterlimit:4;stroke-dasharray:none;stroke-opacity:1"
       d="m -1143.0228,859.70873 0,55.63562 c 0,0 0.4058,5.80123 -2,8.20705 -2.3762,2.37617 -8.0813,2 -8.0813,2 l -10.0812,0"
       id="path6277"
       inkscape:connector-curvature="0"
       sodipodi:nodetypes="ccscc" />
    <path
       inkscape:connector-curvature="0"
       id="path6279"
       d="m -1138.981,858.82434 -8.2143,0"
       style="fill:none;fill-rule:evenodd;stroke:#f1f2f0;stroke-width:2;stroke-linecap:butt;stroke-linejoin:miter;stroke-miterlimit:4;stroke-dasharray:none;stroke-opacity:1"
       sodipodi:nodetypes="cc" />
    <path
       style="fill:none;fill-rule:evenodd;stroke:#f1f2f0;stroke-width:2;stroke-linecap:butt;stroke-linejoin:miter;stroke-miterlimit:4;stroke-dasharray:none;stroke-opacity:1"
       d="m -1163.3053,921.48982 0,8.21429"
       id="path6281"
       inkscape:connector-curvature="0"
       sodipodi:nodetypes="cc" />
    <path
       sodipodi:nodetypes="csssssssc"
       inkscape:connector-curvature="0"
       id="path6283"
       d="m -1418.725,975.03028 c -1.9963,4.50271 -4.8424,8.53966 -8.3317,11.91106 -3.4892,3.37139 -7.6215,6.07723 -12.1901,7.91775 -4.5686,1.84053 -9.5736,2.81571 -14.8081,2.72581 -20.9379,-0.35963 -37.6199,-17.6247 -37.2602,-38.56262 0.3596,-20.93791 17.6247,-37.61991 38.5626,-37.26029 5.2345,0.0899 10.2029,1.2364 14.7057,3.23274 4.5027,1.99632 8.5396,4.84248 11.911,8.33171 3.3714,3.48923 6.0772,7.62154 7.9178,12.19015"
       style="opacity:1;fill:none;fill-opacity:1;stroke:#f1f2f0;stroke-width:2;stroke-linecap:round;stroke-linejoin:round;stroke-miterlimit:4;stroke-dasharray:none;stroke-opacity:1" />
    <path
       style="fill:none;fill-rule:evenodd;stroke:#f1f2f0;stroke-width:2;stroke-linecap:butt;stroke-linejoin:miter;stroke-miterlimit:4;stroke-dasharray:none;stroke-opacity:1"
       d="m -1426.902,960.64699 90,0"
       id="path6285"
       inkscape:connector-curvature="0" />
    <path
       inkscape:connector-curvature="0"
       id="path6287"
       d="m -1335.902,956.42764 0,8.21429"
       style="fill:none;fill-rule:evenodd;stroke:#f1f2f0;stroke-width:2;stroke-linecap:butt;stroke-linejoin:miter;stroke-miterlimit:4;stroke-dasharray:none;stroke-opacity:1" />
    <path
       style="fill:none;fill-rule:evenodd;stroke:#f1f2f0;stroke-width:2;stroke-linecap:butt;stroke-linejoin:miter;stroke-miterlimit:4;stroke-dasharray:none;stroke-opacity:1"
       d="m -1427.902,956.42764 0,8.21429"
       id="path6289"
       inkscape:connector-curvature="0" />
    <path
       inkscape:connector-curvature="0"
       id="path6293"
       d="m -1486.6163,829.71336 0,8.21429"
       style="fill:none;fill-rule:evenodd;stroke:#f1f2f0;stroke-width:2;stroke-linecap:butt;stroke-linejoin:miter;stroke-miterlimit:4;stroke-dasharray:none;stroke-opacity:1" />
    <path
       style="fill:none;fill-rule:evenodd;stroke:#f1f2f0;stroke-width:2;stroke-linecap:butt;stroke-linejoin:miter;stroke-miterlimit:4;stroke-dasharray:none;stroke-opacity:1"
       d="m -946.61629,829.71336 0,8.21429"
       id="path6295"
       inkscape:connector-curvature="0" />
    <path
       style="fill:none;fill-rule:evenodd;stroke:#f1f2f0;stroke-width:2;stroke-linecap:butt;stroke-linejoin:miter;stroke-miterlimit:4;stroke-dasharray:none;stroke-opacity:1"
       d="m -1487.1892,833.58058 -28.2842,0"
       id="path6297"
       inkscape:connector-curvature="0" />
    <path
       inkscape:connector-curvature="0"
       id="path6299"
       d="m -915.47339,833.58058 -30.5051,0"
       style="fill:none;fill-rule:evenodd;stroke:#f1f2f0;stroke-width:2;stroke-linecap:butt;stroke-linejoin:miter;stroke-miterlimit:4;stroke-dasharray:none;stroke-opacity:1"
       sodipodi:nodetypes="cc" />
    <path
       style="fill:none;fill-rule:evenodd;stroke:#f1f2f0;stroke-width:2;stroke-linecap:butt;stroke-linejoin:miter;stroke-miterlimit:4;stroke-dasharray:none;stroke-opacity:1"
       d="m -929.58499,833.07551 0,-134.52469 c 0,0 0.3368,-5.79341 -2,-8.13018 -2.3367,-2.33677 -7.6979,-2 -7.6979,-2 l -29.698,0"
       id="path6301"
       inkscape:connector-curvature="0"
       sodipodi:nodetypes="cczcc" />
    <path
       inkscape:connector-curvature="0"
       id="path6303"
       d="m -969.64679,685.20828 0,8.21429"
       style="fill:none;fill-rule:evenodd;stroke:#f1f2f0;stroke-width:2;stroke-linecap:butt;stroke-linejoin:miter;stroke-miterlimit:4;stroke-dasharray:none;stroke-opacity:1" />
    <path
       style="fill:none;fill-rule:evenodd;stroke:#f1f2f0;stroke-width:2;stroke-linecap:butt;stroke-linejoin:miter;stroke-miterlimit:4;stroke-dasharray:none;stroke-opacity:1"
       d="m -1035.9035,856.30902 0,19.80344 c 0,0 -0.4415,5.92559 2,8.37486 2.4642,2.47204 3.4092,2.03428 8.4712,2.0334 5.7453,-10e-4 36.77641,-1.5e-4 48.52171,-0.005 4.6024,-0.002 5.6043,-0.34877 7.95,1.996 2.326,2.32502 2,7.86621 2,7.86621 l 0,34.5805"
       id="path6318"
       inkscape:connector-curvature="0"
       sodipodi:nodetypes="ccsssscc" />
    <text
       sodipodi:linespacing="125%"
       id="text6320"
       y="722.48279"
       x="-1506.1396"
       style="font-style:normal;font-weight:normal;font-size:30px;line-height:125%;font-family:sans-serif;letter-spacing:0px;word-spacing:0px;fill:#558a86;fill-opacity:1;stroke:none;stroke-width:1px;stroke-linecap:butt;stroke-linejoin:miter;stroke-opacity:1"
       xml:space="preserve"><tspan
         style="font-style:normal;font-variant:normal;font-weight:300;font-stretch:normal;font-size:30px;font-family:'Josefin Sans';-inkscape-font-specification:'Josefin Sans Light';fill:#558a86;fill-opacity:1"
         y="722.48279"
         x="-1506.1396"
         id="tspan6322"
         sodipodi:role="line">env(z)</tspan></text>
    <path
       style="fill:none;fill-rule:evenodd;stroke:#558a86;stroke-width:2;stroke-linecap:butt;stroke-linejoin:miter;stroke-miterlimit:4;stroke-dasharray:none;stroke-opacity:1"
       d="m -1482.6163,816.64699 c 57.3498,-51.7648 104.3532,-80.51002 161.097,-112.15442 25.7194,-12.11641 52.1419,6.17826 71.4071,22.10695 21.9709,18.40279 47.1349,29.10398 77.9086,20.33825 43.6629,-11.60721 62.2856,-24.93603 82.8344,-24.8704 20.5488,0.0656 20.7907,19.43593 71.9709,57.31772 10.2603,7.59428 33.69371,22.08156 62.78201,25.2619"
       id="path7455"
       inkscape:connector-curvature="0"
       sodipodi:nodetypes="cccczsc" />
    <path
       sodipodi:nodetypes="cczcc"
       inkscape:connector-curvature="0"
       id="path7479"
       d="m -1435.2804,717.29878 3.2785,0 c 0,0 6.1882,-0.37595 8.5642,2 2.3759,2.37596 2,7.59645 2,7.59645 l 0,23.59646"
       style="fill:none;fill-rule:evenodd;stroke:#f1f2f0;stroke-width:2;stroke-linecap:butt;stroke-linejoin:miter;stroke-miterlimit:4;stroke-dasharray:none;stroke-opacity:1" />
    <path
       style="fill:none;fill-rule:evenodd;stroke:#f1f2f0;stroke-width:2;stroke-linecap:butt;stroke-linejoin:miter;stroke-miterlimit:4;stroke-dasharray:none;stroke-opacity:1"
       d="m -1435.7003,721.55384 0,-8.21429"
       id="path7481"
       inkscape:connector-curvature="0"
       sodipodi:nodetypes="cc" />
    <path
       inkscape:connector-curvature="0"
       id="path7483"
       d="m -1425.5983,751.15084 8.2143,0"
       style="fill:none;fill-rule:evenodd;stroke:#f1f2f0;stroke-width:2;stroke-linecap:butt;stroke-linejoin:miter;stroke-miterlimit:4;stroke-dasharray:none;stroke-opacity:1"
       sodipodi:nodetypes="cc" />
  </g>
</svg>
