<?xml version="1.0" encoding="UTF-8" standalone="no"?>
<!-- Created with Inkscape (http://www.inkscape.org/) -->

<svg
   xmlns:dc="http://purl.org/dc/elements/1.1/"
   xmlns:cc="http://creativecommons.org/ns#"
   xmlns:rdf="http://www.w3.org/1999/02/22-rdf-syntax-ns#"
   xmlns:svg="http://www.w3.org/2000/svg"
   xmlns="http://www.w3.org/2000/svg"
   xmlns:sodipodi="http://sodipodi.sourceforge.net/DTD/sodipodi-0.dtd"
   xmlns:inkscape="http://www.inkscape.org/namespaces/inkscape"
   width="178.808mm"
   height="104.91801mm"
   viewBox="0 0 633.57165 371.75671"
   id="svg7797"
   version="1.1"
   inkscape:version="0.91 r13725"
   sodipodi:docname="midi.svg">
  <defs
     id="defs7799" />
  <sodipodi:namedview
     id="base"
     pagecolor="#ffffff"
     bordercolor="#666666"
     borderopacity="1.0"
     inkscape:pageopacity="0.0"
     inkscape:pageshadow="2"
     inkscape:zoom="0.35"
     inkscape:cx="268.95094"
     inkscape:cy="513.69729"
     inkscape:document-units="px"
     inkscape:current-layer="layer1"
     showgrid="false"
     fit-margin-top="0"
     fit-margin-left="10"
     fit-margin-right="10"
     fit-margin-bottom="0"
     inkscape:window-width="1317"
     inkscape:window-height="744"
     inkscape:window-x="49"
     inkscape:window-y="24"
     inkscape:window-maximized="1" />
  <metadata
     id="metadata7802">
    <rdf:RDF>
      <cc:Work
         rdf:about="">
        <dc:format>image/svg+xml</dc:format>
        <dc:type
           rdf:resource="http://purl.org/dc/dcmitype/StillImage" />
        <dc:title></dc:title>
      </cc:Work>
    </rdf:RDF>
  </metadata>
  <g
     inkscape:label="Layer 1"
     inkscape:groupmode="layer"
     id="layer1"
     transform="translate(2702.4854,-674.30277)">
    <path
       style="opacity:1;fill:none;fill-opacity:1;stroke:#a5a6a9;stroke-width:2;stroke-linecap:round;stroke-linejoin:round;stroke-miterlimit:4;stroke-dasharray:none;stroke-opacity:1"
       d="m -2615.099,975.9396 29.1439,-19.0209 c 0.3709,-0.2421 0.7993,0.3564 0.7993,0.7992 l 0,68.6535 c 0,0.4428 -0.4284,1.0413 -0.7993,0.7993 l -29.1439,-19.0209 c -0.3708,-0.242 -0.7993,-0.3565 -0.7993,-0.7993 l 0,-30.6116 c 0,-0.4428 0.4285,-0.5572 0.7993,-0.7993 z"
       id="rect7267"
       inkscape:connector-curvature="0"
       sodipodi:nodetypes="sssssssss" />
    <rect
       ry="0.58518398"
       y="977.72156"
       x="-2638.3596"
       height="28.646475"
       width="18.638292"
       id="rect7269"
       style="opacity:1;fill:none;fill-opacity:1;stroke:#a5a6a9;stroke-width:2;stroke-linecap:round;stroke-linejoin:round;stroke-miterlimit:4;stroke-dasharray:none;stroke-opacity:1" />
    <rect
       style="opacity:1;fill:none;fill-opacity:1;stroke:#e7e6e4;stroke-width:2;stroke-linecap:butt;stroke-linejoin:round;stroke-miterlimit:4;stroke-dasharray:none;stroke-opacity:0.21608043"
       id="rect7249"
       width="112.10268"
       height="84.942177"
       x="-2609.2771"
       y="676.20898"
       ry="1.981016" />
    <path
       style="fill:none;fill-rule:evenodd;stroke:#f1f2f0;stroke-width:2;stroke-linecap:round;stroke-linejoin:miter;stroke-miterlimit:4;stroke-dasharray:none;stroke-opacity:1"
       d="m -2586.5206,688.74811 0,22.14809 m 0,15.4965 0,22.9074"
       id="path7251"
       inkscape:connector-curvature="0"
       sodipodi:nodetypes="cccc" />
    <rect
       style="opacity:1;fill:none;fill-opacity:1;stroke:#37bbe4;stroke-width:2;stroke-linecap:round;stroke-linejoin:round;stroke-miterlimit:4;stroke-dasharray:none;stroke-opacity:1"
       id="rect7253"
       width="6.8035908"
       height="13.607182"
       x="-2590.0186"
       y="711.73938"
       ry="3.4017954" />
    <path
       inkscape:connector-curvature="0"
       id="path7255"
       d="m -2564.6312,688.74811 0,25.51839 m 0,15.3905 0,19.6431"
       style="fill:none;fill-rule:evenodd;stroke:#f1f2f0;stroke-width:2;stroke-linecap:round;stroke-linejoin:miter;stroke-miterlimit:4;stroke-dasharray:none;stroke-opacity:1"
       sodipodi:nodetypes="cccc" />
    <rect
       ry="3.4017954"
       y="715.10706"
       x="-2568.1292"
       height="13.607182"
       width="6.8035908"
       id="rect7257"
       style="opacity:1;fill:none;fill-opacity:1;stroke:#37bbe4;stroke-width:2;stroke-linecap:round;stroke-linejoin:round;stroke-miterlimit:4;stroke-dasharray:none;stroke-opacity:1" />
    <path
       style="fill:none;fill-rule:evenodd;stroke:#f1f2f0;stroke-width:2;stroke-linecap:round;stroke-linejoin:miter;stroke-miterlimit:4;stroke-dasharray:none;stroke-opacity:1"
       d="m -2542.7417,688.74811 0,8.50664 m 0,15.51685 0,36.5285"
       id="path7259"
       inkscape:connector-curvature="0"
       sodipodi:nodetypes="cccc" />
    <rect
       style="opacity:1;fill:none;fill-opacity:1;stroke:#37bbe4;stroke-width:2;stroke-linecap:round;stroke-linejoin:round;stroke-miterlimit:4;stroke-dasharray:none;stroke-opacity:1"
       id="rect7261"
       width="6.8035908"
       height="13.607182"
       x="-2546.2395"
       y="698.26898"
       ry="3.4017954" />
    <path
       inkscape:connector-curvature="0"
       id="path7263"
       d="m -2520.8523,688.74811 0,28.78109 m 0,15.4965 0,16.2744"
       style="fill:none;fill-rule:evenodd;stroke:#f1f2f0;stroke-width:2;stroke-linecap:round;stroke-linejoin:miter;stroke-miterlimit:4;stroke-dasharray:none;stroke-opacity:1"
       sodipodi:nodetypes="cccc" />
    <rect
       ry="3.4017954"
       y="718.47467"
       x="-2524.3503"
       height="13.607182"
       width="6.8035908"
       id="rect7265"
       style="opacity:1;fill:none;fill-opacity:1;stroke:#37bbe4;stroke-width:2;stroke-linecap:round;stroke-linejoin:round;stroke-miterlimit:4;stroke-dasharray:none;stroke-opacity:1" />
    <rect
       ry="1.981016"
       y="676.20898"
       x="-2609.2771"
       height="84.942177"
       width="112.10268"
       id="rect7280"
       style="opacity:1;fill:none;fill-opacity:1;stroke:#37bbe4;stroke-width:2;stroke-linecap:butt;stroke-linejoin:round;stroke-miterlimit:4;stroke-dasharray:none;stroke-opacity:1" />
    <path
       style="fill:none;fill-rule:evenodd;stroke:#ffeb00;stroke-width:2;stroke-linecap:butt;stroke-linejoin:miter;stroke-miterlimit:4;stroke-dasharray:none;stroke-opacity:1"
       d="m -2157.41,750.0541 0,127.64 c 0,0 -0.4754,6.1544 2,8.6298 2.4754,2.4754 8.3744,2 8.3744,2 l 5.2075,0 c 0,0 5.7324,0.4446 8.177,-2 2.4446,-2.4446 2,-8.5664 2,-8.5664 l 0,-5.7882 c 0,0 0.318,-5.4703 -2,-7.7883 -2.318,-2.318 -7.8807,-2 -7.8807,-2 l -133.8807,0 c 0,0 -5.4575,-0.3243 -7.7818,2 -2.3243,2.3243 -2,7.9403 -2,7.9403 l 0,59.9607 c 0,0 0.3312,5.5698 -2,7.901 -2.3312,2.3313 -7.8801,2 -7.8801,2 l -68.8699,0 c 0,0 -6.2985,0.4515 -8.75,-2 -2.4515,-2.4515 -2,-8.0516 -2,-8.0516 l 0,-38.0517"
       id="path8923"
       inkscape:connector-curvature="0"
       sodipodi:nodetypes="cczcczcczcczcczcczcc" />
    <path
       sodipodi:nodetypes="cc"
       inkscape:connector-curvature="0"
       id="path6609"
       d="m -2262.4949,727.6117 0,19.479"
       style="fill:none;fill-rule:evenodd;stroke:#ffeb00;stroke-width:2;stroke-linecap:square;stroke-linejoin:miter;stroke-miterlimit:4;stroke-dasharray:none;stroke-opacity:1" />
    <rect
       ry="1.6895919"
       y="677.06146"
       x="-2287.3838"
       height="72.446457"
       width="181.36362"
       id="rect6595"
       style="opacity:1;fill:none;fill-opacity:1;stroke:#ffeb00;stroke-width:2;stroke-linecap:butt;stroke-linejoin:round;stroke-miterlimit:4;stroke-dasharray:none;stroke-opacity:1" />
    <path
       style="fill:none;fill-rule:evenodd;stroke:#ffeb00;stroke-width:2;stroke-linecap:square;stroke-linejoin:miter;stroke-miterlimit:4;stroke-dasharray:none;stroke-opacity:1"
       d="m -2236.0549,727.6117 0,19.479"
       id="path6613"
       inkscape:connector-curvature="0"
       sodipodi:nodetypes="cc" />
    <path
       sodipodi:nodetypes="cc"
       inkscape:connector-curvature="0"
       id="path6617"
       d="m -2183.4229,727.6117 0,19.479"
       style="fill:none;fill-rule:evenodd;stroke:#ffeb00;stroke-width:2;stroke-linecap:square;stroke-linejoin:miter;stroke-miterlimit:4;stroke-dasharray:none;stroke-opacity:1" />
    <path
       sodipodi:nodetypes="cc"
       inkscape:connector-curvature="0"
       id="path6621"
       d="m -2209.6811,679.63648 0,67.47332"
       style="fill:none;fill-rule:evenodd;stroke:#ffeb00;stroke-width:2;stroke-linecap:square;stroke-linejoin:miter;stroke-miterlimit:4;stroke-dasharray:none;stroke-opacity:1" />
    <path
       style="fill:none;fill-rule:evenodd;stroke:#ffeb00;stroke-width:2;stroke-linecap:square;stroke-linejoin:miter;stroke-miterlimit:4;stroke-dasharray:none;stroke-opacity:1"
       d="m -2157.6275,727.6117 0,19.479"
       id="path6623"
       inkscape:connector-curvature="0"
       sodipodi:nodetypes="cc" />
    <path
       sodipodi:nodetypes="cc"
       inkscape:connector-curvature="0"
       id="path6627"
       d="m -2131.3693,727.6117 0,19.4813"
       style="fill:none;fill-rule:evenodd;stroke:#ffeb00;stroke-width:2;stroke-linecap:square;stroke-linejoin:miter;stroke-miterlimit:4;stroke-dasharray:none;stroke-opacity:1" />
    <path
       sodipodi:nodetypes="cssssc"
       inkscape:connector-curvature="0"
       id="path6611"
       d="m -2256.1425,678.16935 0,45.14615 c 0,0.9306 -0.7491,1.6797 -1.6797,1.6797 l -9.6145,0 c -0.9306,0 -1.6797,-0.7491 -1.6797,-1.6797 l 0,-45.14615"
       style="opacity:1;fill:none;fill-opacity:1;stroke:#ffeb00;stroke-width:2;stroke-linecap:butt;stroke-linejoin:round;stroke-miterlimit:4;stroke-dasharray:none;stroke-opacity:1" />
    <path
       style="opacity:1;fill:none;fill-opacity:1;stroke:#ffeb00;stroke-width:2;stroke-linecap:butt;stroke-linejoin:round;stroke-miterlimit:4;stroke-dasharray:none;stroke-opacity:1"
       d="m -2229.5292,678.05055 0,45.26495 c 0,0.9306 -0.7492,1.6797 -1.6797,1.6797 l -9.6146,0 c -0.9306,0 -1.6797,-0.7491 -1.6797,-1.6797 l 0,-45.26495"
       id="path6615"
       inkscape:connector-curvature="0"
       sodipodi:nodetypes="cssssc" />
    <path
       sodipodi:nodetypes="cssssc"
       inkscape:connector-curvature="0"
       id="path6619"
       d="m -2176.5523,678.16935 0,45.14615 c 0,0.9306 -0.7492,1.6797 -1.6797,1.6797 l -9.6146,0 c -0.9305,0 -1.6797,-0.7491 -1.6797,-1.6797 l 0,-45.14615"
       style="opacity:1;fill:none;fill-opacity:1;stroke:#ffeb00;stroke-width:2;stroke-linecap:butt;stroke-linejoin:round;stroke-miterlimit:4;stroke-dasharray:none;stroke-opacity:1" />
    <path
       style="opacity:1;fill:none;fill-opacity:1;stroke:#ffeb00;stroke-width:2;stroke-linecap:butt;stroke-linejoin:round;stroke-miterlimit:4;stroke-dasharray:none;stroke-opacity:1"
       d="m -2150.5878,678.05291 0,45.26259 c 0,0.9306 -0.7492,1.6797 -1.6797,1.6797 l -9.6145,0 c -0.9306,0 -1.6798,-0.7491 -1.6798,-1.6797 l 0,-45.26259"
       id="path6625"
       inkscape:connector-curvature="0"
       sodipodi:nodetypes="cssssc" />
    <path
       sodipodi:nodetypes="cssssc"
       inkscape:connector-curvature="0"
       id="path6629"
       d="m -2124.1576,678.05291 0,45.26259 c 0,0.9306 -0.7491,1.6797 -1.6797,1.6797 l -9.6145,0 c -0.9306,0 -1.6797,-0.7491 -1.6797,-1.6797 l 0,-45.26259"
       style="opacity:1;fill:none;fill-opacity:1;stroke:#ffeb00;stroke-width:2;stroke-linecap:butt;stroke-linejoin:round;stroke-miterlimit:4;stroke-dasharray:none;stroke-opacity:1" />
    <path
       style="opacity:1;fill:none;fill-opacity:1;stroke:#f1f2f0;stroke-width:2;stroke-linecap:round;stroke-linejoin:round;stroke-miterlimit:4;stroke-dasharray:none;stroke-opacity:1"
       d="m -2314.1196,992.3795 c -3.0972,7.0733 -8.0371,15.0166 -16.3306,15.0166 -8.2935,0 -15.0167,-6.7232 -15.0167,-15.0166 0,-8.2935 6.7232,-15.0167 15.0167,-15.0167 8.2935,0 12.6703,7.6617 16.3306,15.0167 z"
       id="path7519"
       inkscape:connector-curvature="0"
       sodipodi:nodetypes="csssc" />
    <path
       sodipodi:nodetypes="csssc"
       inkscape:connector-curvature="0"
       id="path7522"
       d="m -2313.9319,992.3795 c 3.0972,7.0733 8.0372,15.0166 16.3307,15.0166 8.2935,0 15.0167,-6.7232 15.0167,-15.0166 0,-8.2935 -6.7232,-15.0167 -15.0167,-15.0167 -8.2935,0 -12.6704,7.6617 -16.3307,15.0167 z"
       style="opacity:1;fill:none;fill-opacity:1;stroke:#ffffff;stroke-width:2;stroke-linecap:round;stroke-linejoin:round;stroke-miterlimit:4;stroke-dasharray:none;stroke-opacity:1" />
    <path
       style="fill:none;fill-rule:evenodd;stroke:#37bbe4;stroke-width:3;stroke-linecap:butt;stroke-linejoin:miter;stroke-miterlimit:4;stroke-dasharray:none;stroke-opacity:1"
       d="m -2337.2554,992.3795 12.2505,0"
       id="path7528"
       inkscape:connector-curvature="0" />
    <path
       inkscape:connector-curvature="0"
       id="path7530"
       d="m -2303.6013,992.3795 12.2505,0"
       style="fill:none;fill-rule:evenodd;stroke:#37bbe4;stroke-width:3;stroke-linecap:butt;stroke-linejoin:miter;stroke-miterlimit:4;stroke-dasharray:none;stroke-opacity:1" />
    <path
       style="fill:none;fill-rule:evenodd;stroke:#37bbe4;stroke-width:3;stroke-linecap:butt;stroke-linejoin:miter;stroke-miterlimit:4;stroke-dasharray:none;stroke-opacity:1"
       d="m -2297.476,986.2542 0,12.2505"
       id="path7532"
       inkscape:connector-curvature="0" />
    <rect
       style="opacity:1;fill:none;fill-opacity:1;stroke:#3dbd5d;stroke-width:2;stroke-linecap:butt;stroke-linejoin:round;stroke-miterlimit:4;stroke-dasharray:none;stroke-opacity:1"
       id="rect7534"
       width="96.316185"
       height="56.021938"
       x="-2361.7498"
       y="964.83374"
       ry="1.3065401" />
    <path
       style="opacity:1;fill:#ee8012;fill-opacity:1;stroke:none;stroke-width:2;stroke-linecap:round;stroke-linejoin:round;stroke-miterlimit:4;stroke-dasharray:none;stroke-opacity:1"
       d="m -2511.9624,855.9036 c -3.4371,-2.2612 -8.0697,-1.6437 -10.7813,1.5879 -2.9228,3.4832 -2.4716,8.6396 1.0115,11.5624 3.4832,2.9226 8.6396,2.4716 11.5623,-1.0116 2.6977,-3.2149 2.5153,-7.8518 -0.2667,-10.8456 l -4.3376,5.1693 -1.5321,-1.2856 4.3439,-5.1768 z"
       id="rect7538"
       inkscape:connector-curvature="0" />
    <path
       id="path7545"
       d="m -2545.6531,854.5991 c -4.0863,0.4771 -7.2382,3.9279 -7.2382,8.1465 0,4.5469 3.6601,8.207 8.207,8.207 4.547,0 8.207,-3.6601 8.2071,-8.207 -1e-4,-4.1968 -3.1202,-7.6316 -7.1758,-8.1367 l 0,6.748 -2,0 -1e-4,-6.7578 z"
       style="opacity:1;fill:#ee8012;fill-opacity:1;stroke:none;stroke-width:2;stroke-linecap:round;stroke-linejoin:round;stroke-miterlimit:4;stroke-dasharray:none;stroke-opacity:1"
       inkscape:connector-curvature="0" />
    <circle
       style="opacity:1;fill:#3dbd5d;fill-opacity:1;stroke:none;stroke-width:2;stroke-linecap:round;stroke-linejoin:round;stroke-miterlimit:4;stroke-dasharray:none;stroke-opacity:0.21568627"
       id="path7553"
       cx="-2645.5332"
       cy="851.54651"
       r="2.5892856" />
    <circle
       cy="851.54651"
       cx="-2623.5332"
       id="circle7559"
       style="opacity:1;fill:#3dbd5d;fill-opacity:1;stroke:none;stroke-width:2;stroke-linecap:round;stroke-linejoin:round;stroke-miterlimit:4;stroke-dasharray:none;stroke-opacity:0.21568627"
       r="2.5892856" />
    <circle
       cy="851.54651"
       cx="-2601.176"
       id="circle7561"
       style="opacity:1;fill:#3dbd5d;fill-opacity:1;stroke:none;stroke-width:2;stroke-linecap:round;stroke-linejoin:round;stroke-miterlimit:4;stroke-dasharray:none;stroke-opacity:0.21568627"
       r="2.5892856" />
    <circle
       style="opacity:1;fill:#3dbd5d;fill-opacity:1;stroke:none;stroke-width:2;stroke-linecap:round;stroke-linejoin:round;stroke-miterlimit:4;stroke-dasharray:none;stroke-opacity:0.21568627"
       id="circle7563"
       cx="-2579.176"
       cy="851.54651"
       r="2.5892856" />
    <rect
       ry="1.2268726"
       y="835.92749"
       x="-2664.4404"
       height="52.605949"
       width="167.90019"
       id="rect7536"
       style="opacity:1;fill:none;fill-opacity:1;stroke:#f54123;stroke-width:2.55884695;stroke-linecap:butt;stroke-linejoin:round;stroke-miterlimit:4;stroke-dasharray:none;stroke-opacity:1" />
    <circle
       style="opacity:1;fill:#2b2b2b;fill-opacity:1;stroke:#f54123;stroke-width:2;stroke-linecap:round;stroke-linejoin:round;stroke-miterlimit:4;stroke-dasharray:none;stroke-opacity:1"
       id="path7547"
       cx="-2645.4355"
       cy="875.75952"
       r="6.0293479" />
    <circle
       cy="875.82092"
       cx="-2623.0938"
       id="circle7549"
       style="opacity:1;fill:#2b2b2b;fill-opacity:1;stroke:#f54123;stroke-width:2;stroke-linecap:round;stroke-linejoin:round;stroke-miterlimit:4;stroke-dasharray:none;stroke-opacity:1"
       r="6.0293479" />
    <circle
       style="opacity:1;fill:#2b2b2b;fill-opacity:1;stroke:#f54123;stroke-width:2;stroke-linecap:round;stroke-linejoin:round;stroke-miterlimit:4;stroke-dasharray:none;stroke-opacity:1"
       id="circle7555"
       cx="-2601.0938"
       cy="875.82092"
       r="6.0293479" />
    <circle
       cy="875.82092"
       cx="-2579.0938"
       id="circle7557"
       style="opacity:1;fill:#2b2b2b;fill-opacity:1;stroke:#f54123;stroke-width:2;stroke-linecap:round;stroke-linejoin:round;stroke-miterlimit:4;stroke-dasharray:none;stroke-opacity:1"
       r="6.0293479" />
    <rect
       style="opacity:1;fill:none;fill-opacity:1;stroke:#f54123;stroke-width:2;stroke-linecap:round;stroke-linejoin:round;stroke-miterlimit:4;stroke-dasharray:none;stroke-opacity:1"
       id="rect7565"
       width="84.285713"
       height="17.5"
       x="-2654.4031"
       y="842.74304"
       ry="8.1810131" />
    <circle
       r="26.769041"
       cy="991.64038"
       cx="-2142.9709"
       id="circle7282"
       style="opacity:1;fill:none;fill-opacity:0.21568627;stroke:#558a86;stroke-width:2;stroke-linecap:round;stroke-linejoin:round;stroke-miterlimit:4;stroke-dasharray:none;stroke-opacity:1" />
    <path
       style="opacity:1;fill:none;fill-opacity:1;stroke:#558a86;stroke-width:2;stroke-linecap:round;stroke-linejoin:round;stroke-miterlimit:4;stroke-dasharray:none;stroke-opacity:1"
       d="m -2121.5576,991.6404 c 0,11.8263 -9.5871,21.4133 -21.4133,21.4133 -11.8262,0 -21.4133,-9.587 -21.4133,-21.4133 0,-2.9565 0.5992,-5.7731 1.6828,-8.335 1.0835,-2.5618 2.6515,-4.8689 4.589,-6.8064 1.9375,-1.9376 4.2446,-3.5055 6.8065,-4.5891 1.2809,-0.5418 4.0195,-1.2477 4.0195,-1.2477 l -0.02,5.5594 c 0,0 3.5968,0.01 4.3359,0.01 0.7392,0 4.336,-0.026 4.336,-0.026 l -0.02,-5.5391 c 0,0 2.7386,0.706 4.0195,1.2477 2.5618,1.0836 4.8689,2.6516 6.8064,4.5891 1.9376,1.9375 3.5055,4.2446 4.5891,6.8064 1.0836,2.5619 1.6827,5.3785 1.6827,8.3351 z"
       id="circle7284"
       inkscape:connector-curvature="0"
       sodipodi:nodetypes="ssssssccsccssss" />
    <path
       style="fill:none;fill-rule:evenodd;stroke:#558a86;stroke-width:2;stroke-linecap:round;stroke-linejoin:miter;stroke-miterlimit:4;stroke-dasharray:none;stroke-opacity:1"
       d="m -2143.0418,998.7045 0,8.3516"
       id="path7439"
       inkscape:connector-curvature="0" />
    <circle
       style="opacity:1;fill:#558a86;fill-opacity:1;stroke:none;stroke-width:2;stroke-linecap:round;stroke-linejoin:round;stroke-miterlimit:4;stroke-dasharray:none;stroke-opacity:1"
       id="path7437"
       cx="-2143.105"
       cy="1002.8433"
       r="2.7525382" />
    <path
       inkscape:connector-curvature="0"
       id="path7479"
       d="m -2148.9564,995.2927 -4.1758,7.2327"
       style="fill:none;fill-rule:evenodd;stroke:#558a86;stroke-width:2;stroke-linecap:round;stroke-linejoin:miter;stroke-miterlimit:4;stroke-dasharray:none;stroke-opacity:1" />
    <circle
       r="2.7525382"
       cy="1940.5658"
       cx="-1363.4677"
       id="circle7477"
       style="opacity:1;fill:#558a86;fill-opacity:1;stroke:none;stroke-width:2;stroke-linecap:round;stroke-linejoin:round;stroke-miterlimit:4;stroke-dasharray:none;stroke-opacity:1"
       transform="matrix(0.8660254,0.50000001,-0.50000001,0.8660254,0,0)" />
    <path
       style="fill:none;fill-rule:evenodd;stroke:#558a86;stroke-width:2;stroke-linecap:round;stroke-linejoin:miter;stroke-miterlimit:4;stroke-dasharray:none;stroke-opacity:1"
       d="m -2137.0691,995.2927 4.1758,7.2327"
       id="path7485"
       inkscape:connector-curvature="0" />
    <circle
       style="opacity:1;fill:#558a86;fill-opacity:1;stroke:none;stroke-width:2;stroke-linecap:round;stroke-linejoin:round;stroke-miterlimit:4;stroke-dasharray:none;stroke-opacity:1"
       id="circle7483"
       cx="2348.3394"
       cy="-202.44698"
       r="2.7525382"
       transform="matrix(-0.8660254,0.50000001,0.50000001,0.8660254,0,0)" />
    <path
       inkscape:connector-curvature="0"
       id="path7491"
       d="m -2134.18,988.2249 6.3977,5.3683"
       style="fill:none;fill-rule:evenodd;stroke:#558a86;stroke-width:2;stroke-linecap:round;stroke-linejoin:miter;stroke-miterlimit:4;stroke-dasharray:none;stroke-opacity:1" />
    <circle
       r="2.7525382"
       cy="-995.51923"
       cx="2128.7854"
       id="circle7489"
       style="opacity:1;fill:#558a86;fill-opacity:1;stroke:none;stroke-width:2;stroke-linecap:round;stroke-linejoin:round;stroke-miterlimit:4;stroke-dasharray:none;stroke-opacity:1"
       transform="matrix(-0.6427876,0.76604445,0.76604445,0.6427876,0,0)" />
    <path
       style="fill:none;fill-rule:evenodd;stroke:#558a86;stroke-width:2;stroke-linecap:round;stroke-linejoin:miter;stroke-miterlimit:4;stroke-dasharray:none;stroke-opacity:1"
       d="m -2151.7823,988.2249 -6.3977,5.3683"
       id="path7497"
       inkscape:connector-curvature="0" />
    <circle
       style="opacity:1;fill:#558a86;fill-opacity:1;stroke:none;stroke-width:2;stroke-linecap:round;stroke-linejoin:round;stroke-miterlimit:4;stroke-dasharray:none;stroke-opacity:1"
       id="circle7495"
       cx="-626.17798"
       cy="2287.7185"
       r="2.7525382"
       transform="matrix(0.6427876,0.76604445,-0.76604445,0.6427876,0,0)" />
    <path
       style="fill:none;fill-rule:evenodd;stroke:#37bbe4;stroke-width:2;stroke-linecap:butt;stroke-linejoin:miter;stroke-miterlimit:4;stroke-dasharray:none;stroke-opacity:1"
       d="m -2609.4532,718.7393 -46.2843,0 c 0,0 -5.8459,-0.4383 -8.2843,2 -2.4384,2.4384 -2,8.4061 -2,8.4061 l 0,60.2132 c 0,0 -0.4004,5.7925 2,8.1929 2.4004,2.4004 8.1752,2 8.1752,2 l 101.0875,0 c 0,0 5.7374,-0.3603 8.0977,2 2.3604,2.3603 2,7.9302 2,7.9302 l 0,24.9201 m 0,55.231 0,120.869 c 0,0 -0.3501,5.5292 2,7.8793 2.3502,2.3501 8.0622,2 8.0622,2 l 133.0521,0 c 0,0 5.5731,0.5309 8.1041,-2 2.5309,-2.5309 2,-9.3715 2,-9.3715 l 0,-115.3714"
       id="path8945"
       inkscape:connector-curvature="0"
       sodipodi:nodetypes="cszcczcczcccczcczcc" />
    <path
       style="fill:none;fill-rule:evenodd;stroke:#a5a6a9;stroke-width:2;stroke-linecap:butt;stroke-linejoin:miter;stroke-miterlimit:4;stroke-dasharray:none;stroke-opacity:1"
       d="m -2638.7477,992.4907 -15.637,0 c 0,0 -6.2244,-0.4025 -8.6269,2 -2.4025,2.4025 -2,7.7589 -2,7.7589 l 0,31.8895 c 0,0 -0.5017,6.3779 2,8.8795 2.5016,2.5016 8.3477,2 8.3477,2 l 149.1739,0 c 0,0 5.8361,0.3479 8.184,-2 2.3479,-2.3479 2,-7.7386 2,-7.7386 l 0,-60.7284 c 0,0 0.3948,-6.0722 -2,-8.467 -2.3949,-2.3949 -7.8541,-2 -7.8541,-2 l -8.8439,0 c 0,0 -6.2479,-0.4501 -8.698,2 -2.45,2.45 -2,8.0913 -2,8.0913 l 0,8.1117 c 0,0 -0.4382,5.7648 2,8.2031 2.4383,2.4382 8.4861,2 8.4861,2 l 35.4962,0 c 0,0 5.6771,0.3051 7.9822,-2 2.3052,-2.3052 2,-7.5774 2,-7.5774 l 0,-109.5775 c 0,0 0.4683,-6.6865 -2,-9.1548 -2.4683,-2.4683 -7.7893,-2 -7.7893,-2 l -16.7792,0"
       id="path8875"
       inkscape:connector-curvature="0"
       sodipodi:nodetypes="cczcczcczcczcczcczcczcczcc" />
    <path
       style="fill:none;fill-rule:evenodd;stroke:#558a86;stroke-width:2;stroke-linecap:butt;stroke-linejoin:miter;stroke-miterlimit:4;stroke-dasharray:none;stroke-opacity:1"
       d="m -2143.2679,1018.7748 0,15.627 c 0,0 -0.4214,6.1953 2,8.6168 2.4215,2.4215 7.9303,2 7.9303,2 l 17.4701,0 c 0,0 5.9827,0.4977 8.4804,-2 2.4977,-2.4977 2,-8.7132 2,-8.7132 l 0,-230.4074 c 0,0 0.4268,-5.9805 -2,-8.4074 -2.4269,-2.4268 -8.1853,-2 -8.1853,-2 l -269.7932,0 c 0,0 -5.4746,0.3186 -7.7932,-2 -2.3186,-2.3186 -2,-7.8807 -2,-7.8807 l 0,-54.4353 c 0,0 -0.4159,-6.0193 2,-8.4353 2.416,-2.4159 8.0648,-2 8.0648,-2 l 49.0526,0 c 0,0 5.6931,-0.3243 8.0222,2 2.3292,2.3243 2.0205,7.7209 2.0205,7.7209 l 0.01,123.8705 c 0,0 0.3697,5.4884 -1.9897,7.8503 -2.3594,2.3619 -8.1805,2 -8.1805,2 l -13.2109,0"
       id="path8881"
       inkscape:connector-curvature="0"
       sodipodi:nodetypes="cczcczcczcczcczcczcczcc" />
    <path
       style="fill:none;fill-rule:evenodd;stroke:#f43530;stroke-width:2;stroke-linecap:butt;stroke-linejoin:miter;stroke-miterlimit:4;stroke-dasharray:none;stroke-opacity:1"
       d="m -2579.1487,889.4551 0,21.1523 c 0,0 -0.3968,5.7656 2,8.1624 2.3968,2.3969 8.1752,2 8.1752,2 l 350.8008,0 c 0,0 5.4877,-0.3028 7.7906,2 2.3029,2.3029 2,7.75 2,7.75 l 0,78.875 c 0,0 0.5376,6.3374 -2,8.875 -2.5376,2.5376 -8.6573,2 -8.6573,2 l -4.8236,0 c 0,0 -5.5094,0.3244 -7.8338,-2 -2.3244,-2.3244 -2,-7.8896 -2,-7.8896 l 0,-7.4498 c 0,0 -0.3816,-6.0581 2,-8.4397 2.3816,-2.3817 7.769,-2 7.769,-2 l 29.8947,0 c 0,0 5.5067,0.388 7.8947,-2 2.388,-2.388 2,-8.3681 2,-8.3681 l 0,-152.1941 c 0,0 0.3805,-5.7934 -2,-8.1739 -2.3805,-2.3805 -8.0254,-2 -8.0254,-2 l -179.0127,0 c 0,0 -5.6718,-0.3308 -8.0026,2 -2.3308,2.3308 -2,7.775 -2,7.775"
       id="path8889"
       inkscape:connector-curvature="0"
       sodipodi:nodetypes="cczcczcczcczcczcczcczcczc" />
    <path
       style="fill:none;fill-rule:evenodd;stroke:#3dbd5d;stroke-width:2;stroke-linecap:butt;stroke-linejoin:miter;stroke-miterlimit:4;stroke-dasharray:none;stroke-opacity:1"
       d="m -2314.6918,1021.181 0,13.9188 c 0,0 0.4692,5.4496 -2,7.9188 -2.4691,2.4692 -9.033,2 -9.033,2 l -105.0114,0 c 0,0 -5.64,0.3816 -8.0216,-2 -2.3815,-2.3816 -2,-8.1866 -2,-8.1866 l 0,-349.17637 c 0,0 -0.066,-6.41848 -2,-8.35286 -1.9344,-1.93438 -8.0609,-2 -8.0609,-2 l -8.1624,0 c 0,0 -6.1513,0.0903 -8.0609,2 -1.9097,1.90966 -2,8.14306 -2,8.14306 l 0,6.30644 c 0,0 0.1233,6.26639 2,8.14306 1.8766,1.87667 7.7809,1.99997 7.7809,1.99997 l 150.3854,0 c 0,0 5.9157,-0.4698 8.3855,2 2.4697,2.4698 2,8.5714 2,8.5714 l 0,55.2858 c 0,0 0.5175,6.7681 -2,9.2857 -2.5176,2.5176 -8.0766,2 -8.0766,2 l -150.0485,0 c 0,0 -5.7226,-0.3197 -8.0484,2 -2.3259,2.3197 -2.0255,7.6607 -2.0255,7.6607 l -0.013,62.8304 c 0,0 -0.5741,6.287 1.9872,8.8303 2.5613,2.5433 8.8266,1.9107 8.8266,1.9107 l 42.8265,-0.089"
       id="path8917"
       inkscape:connector-curvature="0"
       sodipodi:nodetypes="cczcczcczcczcczcczcczcczcczcc" />
    <path
       style="fill:none;fill-rule:evenodd;stroke:#000000;stroke-width:1px;stroke-linecap:butt;stroke-linejoin:miter;stroke-opacity:1"
       d="m -2346.0515,839.7525 0,0"
       id="path8919"
       inkscape:connector-curvature="0" />
    <circle
       style="opacity:1;fill:#ffeb00;fill-opacity:1;stroke:none;stroke-width:2;stroke-linecap:round;stroke-linejoin:round;stroke-miterlimit:4;stroke-dasharray:none;stroke-opacity:1"
       id="path7274"
       cx="-2382.7832"
       cy="862.4043"
       r="33.335033" />
    <path
       inkscape:connector-curvature="0"
       id="path7278"
       d="m -2400.1291,867.5837 10.1416,0 0,-13.4486 7.4074,0 7.4073,0 0,13.4486 10.1416,0"
       style="fill:none;fill-opacity:1;fill-rule:evenodd;stroke:#272727;stroke-width:2;stroke-linecap:butt;stroke-linejoin:miter;stroke-miterlimit:4;stroke-dasharray:none;stroke-opacity:1"
       sodipodi:nodetypes="ccccccc" />
  </g>
</svg>
