<?xml version="1.0" encoding="UTF-8" standalone="no"?>
<!-- Created with Inkscape (http://www.inkscape.org/) -->

<svg
   xmlns:dc="http://purl.org/dc/elements/1.1/"
   xmlns:cc="http://creativecommons.org/ns#"
   xmlns:rdf="http://www.w3.org/1999/02/22-rdf-syntax-ns#"
   xmlns:svg="http://www.w3.org/2000/svg"
   xmlns="http://www.w3.org/2000/svg"
   xmlns:sodipodi="http://sodipodi.sourceforge.net/DTD/sodipodi-0.dtd"
   xmlns:inkscape="http://www.inkscape.org/namespaces/inkscape"
   width="250.7639mm"
   height="119.05736mm"
   viewBox="0 0 888.53346 421.85675"
   id="svg10989"
   version="1.1"
   inkscape:version="0.91 r13725"
   sodipodi:docname="osc.svg">
  <defs
     id="defs10991" />
  <sodipodi:namedview
     id="base"
     pagecolor="#ffffff"
     bordercolor="#666666"
     borderopacity="1.0"
     inkscape:pageopacity="0.0"
     inkscape:pageshadow="2"
     inkscape:zoom="0.35"
     inkscape:cx="404.17332"
     inkscape:cy="564.43965"
     inkscape:document-units="px"
     inkscape:current-layer="layer1"
     showgrid="false"
     fit-margin-top="0"
     fit-margin-left="10"
     fit-margin-right="10"
     fit-margin-bottom="0"
     inkscape:window-width="1317"
     inkscape:window-height="744"
     inkscape:window-x="49"
     inkscape:window-y="24"
     inkscape:window-maximized="1" />
  <metadata
     id="metadata10994">
    <rdf:RDF>
      <cc:Work
         rdf:about="">
        <dc:format>image/svg+xml</dc:format>
        <dc:type
           rdf:resource="http://purl.org/dc/dcmitype/StillImage" />
        <dc:title></dc:title>
      </cc:Work>
    </rdf:RDF>
  </metadata>
  <g
     inkscape:label="Layer 1"
     inkscape:groupmode="layer"
     id="layer1"
     transform="translate(997.74467,-674.94508)">
    <path
       sodipodi:nodetypes="czczc"
       inkscape:connector-curvature="0"
       id="path10747"
       d="m -621.15385,788.73528 c 0,0 4.91769,-10.3308 10.45658,-10.3308 5.5389,0 10.45657,10.3308 10.45657,10.3308 0,0 4.91767,10.3309 10.45657,10.3309 5.53889,0 10.45657,-10.3309 10.45657,-10.3309"
       style="fill:none;fill-rule:evenodd;stroke:#ffeb00;stroke-width:2;stroke-linecap:butt;stroke-linejoin:miter;stroke-miterlimit:4;stroke-dasharray:none;stroke-opacity:1" />
    <path
       style="fill:none;fill-rule:evenodd;stroke:#ffeb00;stroke-width:2;stroke-linecap:butt;stroke-linejoin:miter;stroke-miterlimit:4;stroke-dasharray:none;stroke-opacity:1"
       d="m -621.15385,808.56288 c 0,0 4.91769,-10.3309 10.45658,-10.3309 5.5389,0 10.45657,10.3309 10.45657,10.3309 0,0 4.91767,10.3309 10.45657,10.3309 5.53889,0 10.45657,-10.3309 10.45657,-10.3309"
       id="path10795"
       inkscape:connector-curvature="0"
       sodipodi:nodetypes="czczc" />
    <path
       style="fill:none;fill-rule:evenodd;stroke:#f1f2f0;stroke-width:2;stroke-linecap:butt;stroke-linejoin:miter;stroke-miterlimit:4;stroke-dasharray:none;stroke-opacity:1"
       d="m -607.07559,796.48508 15.49959,-15.4996"
       id="path10797"
       inkscape:connector-curvature="0" />
    <path
       style="fill:none;fill-rule:evenodd;stroke:#f1f2f0;stroke-width:2;stroke-linecap:butt;stroke-linejoin:miter;stroke-miterlimit:4;stroke-dasharray:none;stroke-opacity:1"
       d="m -500.03794,799.91158 -61.68021,0"
       id="path10935"
       inkscape:connector-curvature="0"
       sodipodi:nodetypes="cc" />
    <path
       style="opacity:1;fill:none;fill-opacity:1;stroke:#ffeb00;stroke-width:2;stroke-linecap:round;stroke-linejoin:round;stroke-miterlimit:4;stroke-dasharray:none;stroke-opacity:1"
       d="m -552.51911,819.17818 c -2.59906,6.1449 -6.35997,11.6787 -11.00734,16.326 -4.64736,4.6474 -10.18118,8.4083 -16.32607,11.0074 -6.14488,2.599 -5.82976,-9.9637 -19.99247,-9.9637 -14.16271,0 -13.84759,12.5627 -19.99248,9.9637 -6.14489,-2.5991 -11.67871,-6.36 -16.32607,-11.0074 -4.64737,-4.6473 -8.40828,-10.1811 -11.00734,-16.326 -2.59907,-6.1449 -4.0363,-12.9009 -4.0363,-19.9925 0,-7.0917 1.43723,-13.8476 4.0363,-19.9925 2.59906,-6.1449 6.35997,-11.6787 11.00734,-16.3261 4.64736,-4.6473 10.18118,-8.4082 16.32607,-11.0073 6.14488,-2.5991 4.81962,9.9637 19.99248,9.9637 15.17285,0 13.8476,-12.5628 19.99247,-9.9637 6.14489,2.5991 11.67871,6.36 16.32607,11.0073 4.64737,4.6474 8.40828,10.1812 11.00734,16.3261"
       id="path10799"
       inkscape:connector-curvature="0"
       sodipodi:nodetypes="csszssssssszssc" />
    <path
       inkscape:connector-curvature="0"
       id="path10879"
       d="m -749.30193,1019.7817 -61.99999,-0.4042 c 0,0 -5.79189,-0.105 -8,-2.4042 -2.20811,-2.2991 -2,-7.1184 -2,-7.1184 l 0,-125.11852 c 0,0 0.5335,-6.7 -2,-9.2335 -2.5335,-2.5335 -8.26397,-2 -8.26397,-2 l -31.13197,0 c 0,0 -6.5913,-0.5407 -9.13198,2 -2.54068,2.5407 -2,8.4264 -2,8.4264 l 0,31.2132 c 0,0 -0.50133,6.7119 2,9.2132 2.50133,2.5013 8.01126,2 8.01126,2 l 254.29132,0 c 0,0 5.82131,0.47 8.29134,-2 2.47003,-2.47 2,-8.6675 2,-8.6675 l 0,-62.6675"
       style="fill:none;fill-rule:evenodd;stroke:#f1f2f0;stroke-width:2;stroke-linecap:butt;stroke-linejoin:miter;stroke-miterlimit:4;stroke-dasharray:none;stroke-opacity:0.94117647"
       sodipodi:nodetypes="cczcczcczcczcczcc" />
    <path
       style="fill:none;fill-rule:evenodd;stroke:#f1f2f0;stroke-width:2;stroke-linecap:butt;stroke-linejoin:miter;stroke-miterlimit:4;stroke-dasharray:none;stroke-opacity:1"
       d="m -615.90344,869.86458 16.66752,-16.6675 17.3955,16.1642"
       id="path10881"
       inkscape:connector-curvature="0"
       sodipodi:nodetypes="ccc" />
    <path
       sodipodi:nodetypes="ccc"
       inkscape:connector-curvature="0"
       id="path10883"
       d="m -615.90344,728.76798 16.66752,16.6675 17.3955,-16.1642"
       style="fill:none;fill-rule:evenodd;stroke:#f1f2f0;stroke-width:2;stroke-linecap:butt;stroke-linejoin:miter;stroke-miterlimit:4;stroke-dasharray:none;stroke-opacity:1" />
    <path
       sodipodi:nodetypes="ccccc"
       inkscape:connector-curvature="0"
       id="path10887"
       d="m -308.7972,830.27388 19.2018,-59.662 10.9939,29.0297 30.6457,0 7.9863,30.6169"
       style="fill:none;fill-rule:evenodd;stroke:#3dbd5d;stroke-width:2;stroke-linecap:butt;stroke-linejoin:miter;stroke-miterlimit:4;stroke-dasharray:none;stroke-opacity:1" />
    <path
       sodipodi:nodetypes="ccc"
       inkscape:connector-curvature="0"
       id="path10900"
       d="m -415.1651,783.23668 16.6675,16.6675 -16.1642,17.3955"
       style="fill:none;fill-rule:evenodd;stroke:#f1f2f0;stroke-width:2;stroke-linecap:butt;stroke-linejoin:miter;stroke-miterlimit:4;stroke-dasharray:none;stroke-opacity:1" />
    <path
       style="fill:none;fill-rule:evenodd;stroke:#f1f2f0;stroke-width:2;stroke-linecap:butt;stroke-linejoin:miter;stroke-miterlimit:4;stroke-dasharray:none;stroke-opacity:1"
       d="m -162.7006,783.48918 16.6675,16.6675 -16.1642,17.3955"
       id="path10902"
       inkscape:connector-curvature="0"
       sodipodi:nodetypes="ccc" />
    <path
       sodipodi:nodetypes="ccc"
       inkscape:connector-curvature="0"
       id="path10907"
       d="m -741.0136,983.05218 -20.93589,10.8305 -11.67684,-20.677"
       style="fill:none;fill-rule:evenodd;stroke:#37bbe4;stroke-width:2;stroke-linecap:butt;stroke-linejoin:miter;stroke-miterlimit:4;stroke-dasharray:none;stroke-opacity:1" />
    <path
       style="fill:none;fill-rule:evenodd;stroke:#f54123;stroke-width:2;stroke-linecap:butt;stroke-linejoin:miter;stroke-miterlimit:4;stroke-dasharray:none;stroke-opacity:1"
       d="m -838.59671,787.26738 21.58139,-9.4792 10.34027,21.3768"
       id="path10909"
       inkscape:connector-curvature="0"
       sodipodi:nodetypes="ccc" />
    <path
       sodipodi:nodetypes="cczcczcczcczcczcc"
       style="fill:none;fill-rule:evenodd;stroke:#f1f2f0;stroke-width:2;stroke-linecap:butt;stroke-linejoin:miter;stroke-miterlimit:4;stroke-dasharray:none;stroke-opacity:0.94117647"
       d="m -827.40855,751.88138 97.76759,0 c 0,0 5.98722,-0.3518 8.33903,2 2.35181,2.3518 2,7.6167 2,7.6167 l 0,19.6168 c 0,0 0.5335,6.7 -2,9.2335 -2.5335,2.5335 -8.26397,2 -8.26397,2 l -17.13198,0 c 0,0 -6.59129,0.5407 -9.13197,-2 -2.54068,-2.5407 -2,-8.4264 -2,-8.4264 l 0,-59.2132 c 0,0 -0.50133,-6.7119 2,-9.2132 2.50133,-2.5014 8.01125,-2 8.01125,-2 l 138.29134,0 c 0,0 5.82131,-0.4701 8.29134,2 2.47003,2.47 2,8.6675 2,8.6675 l 0,22.6675"
       id="path10913"
       inkscape:connector-curvature="0" />
    <path
       style="fill:none;fill-rule:evenodd;stroke:#558a86;stroke-width:2;stroke-linecap:butt;stroke-linejoin:miter;stroke-miterlimit:4;stroke-dasharray:none;stroke-opacity:1"
       d="m -480.38313,799.91158 48.48733,0"
       id="path10915"
       inkscape:connector-curvature="0" />
    <path
       inkscape:connector-curvature="0"
       id="path10917"
       d="m -456.1395,775.66788 0,48.4873"
       style="fill:none;fill-rule:evenodd;stroke:#558a86;stroke-width:2;stroke-linecap:butt;stroke-linejoin:miter;stroke-miterlimit:4;stroke-dasharray:none;stroke-opacity:1" />
    <path
       style="fill:none;fill-rule:evenodd;stroke:#f1f2f0;stroke-width:2;stroke-linecap:butt;stroke-linejoin:miter;stroke-miterlimit:4;stroke-dasharray:none;stroke-opacity:1"
       d="m -515.16508,783.23668 16.66751,16.6675 -16.16421,17.3955"
       id="path10940"
       inkscape:connector-curvature="0"
       sodipodi:nodetypes="ccc" />
    <path
       style="fill:none;fill-rule:evenodd;stroke:#f1f2f0;stroke-width:2;stroke-linecap:butt;stroke-linejoin:miter;stroke-miterlimit:4;stroke-dasharray:none;stroke-opacity:1"
       d="m -185.3746,799.60738 0,208.88762 c 0,0 0.3318,6.5152 -2,8.847 -2.3318,2.3318 -6.9387,2 -6.9387,2 l -58.9184,0 m -135.7143,0 -57.9286,0 c 0,0 -5.5812,0.3474 -7.9286,-2 -2.3474,-2.3474 -2,-7.9898 -2,-7.9898 l 0,-163.54572"
       id="path10942"
       inkscape:connector-curvature="0"
       sodipodi:nodetypes="cczcccczcc" />
    <path
       sodipodi:nodetypes="ccc"
       inkscape:connector-curvature="0"
       id="path10944"
       d="m -473.65364,861.17338 16.66754,-16.6676 17.3955,16.1643"
       style="fill:none;fill-rule:evenodd;stroke:#f1f2f0;stroke-width:2;stroke-linecap:butt;stroke-linejoin:miter;stroke-miterlimit:4;stroke-dasharray:none;stroke-opacity:1" />
    <path
       style="opacity:1;fill:none;fill-opacity:1;stroke:#de3d83;stroke-width:2;stroke-linecap:round;stroke-linejoin:round;stroke-miterlimit:4;stroke-dasharray:none;stroke-opacity:1"
       d="m -302.0124,989.74518 a 30.357139,30.357139 0 0 1 -30.3572,30.35712 30.357139,30.357139 0 0 1 -30.3571,-30.35712 30.357139,30.357139 0 0 1 30.3571,-30.3571 30.357139,30.357139 0 0 1 30.3572,30.3571 z"
       id="path10946"
       inkscape:connector-curvature="0" />
    <path
       style="opacity:1;fill:none;fill-opacity:1;stroke:#de3d83;stroke-width:2;stroke-linecap:round;stroke-linejoin:round;stroke-miterlimit:4;stroke-dasharray:none;stroke-opacity:1"
       d="m -280.0124,989.74518 a 30.357139,30.357139 0 0 1 -30.3572,30.35712 30.357139,30.357139 0 0 1 -30.3571,-30.35712 30.357139,30.357139 0 0 1 30.3571,-30.3571 30.357139,30.357139 0 0 1 30.3572,30.3571 z"
       id="circle10948"
       inkscape:connector-curvature="0" />
    <path
       style="fill:none;fill-rule:evenodd;stroke:#de3d83;stroke-width:2;stroke-linecap:butt;stroke-linejoin:miter;stroke-miterlimit:4;stroke-dasharray:none;stroke-opacity:1"
       d="m -381.2267,1020.1023 119.4286,0"
       id="path10952"
       inkscape:connector-curvature="0"
       sodipodi:nodetypes="cc" />
    <path
       style="fill:none;fill-rule:evenodd;stroke:#f1f2f0;stroke-width:2;stroke-linecap:butt;stroke-linejoin:miter;stroke-miterlimit:4;stroke-dasharray:none;stroke-opacity:1"
       d="m -219.5185,800.77368 c 0.048,-2.0498 -0.014,-3.5774 -0.1809,-5.5872 -0.1674,-2.0098 -0.4399,-3.9968 -0.8123,-5.9552 -0.3723,-1.9585 -0.8445,-3.8883 -1.4111,-5.784 -0.5665,-1.8956 -1.2274,-3.757 -1.9773,-5.5784 -0.7499,-1.8214 -1.5888,-3.6028 -2.5112,-5.3385 -0.9223,-1.7358 -1.9283,-3.4259 -3.0123,-5.0646 -1.0841,-1.6387 -2.2463,-3.226 -3.4812,-4.7563 -1.2349,-1.5302 -2.5425,-3.0033 -3.9174,-4.4137 -1.3748,-1.4103 -2.817,-2.7579 -4.3211,-4.0369 -1.504,-1.2791 -3.0699,-2.4895 -4.6922,-3.6258 -1.6224,-1.1363 -3.3012,-2.1984 -5.031,-3.1806 -1.7298,-0.9821 -3.5107,-1.8844 -5.3371,-2.701 -1.8265,-0.8166 -3.6985,-1.5475 -5.6108,-2.1871 -1.9122,-0.6396 -3.8647,-1.1879 -5.8519,-1.6391 -1.9872,-0.4512 -4.0092,-0.8054 -6.0605,-1.0568 -36.2109,-4.4378 -69.1176,23.1909 -73.2456,58.9937 -4.4953,38.9888 25.3153,74.3269 63.9161,78.563 41.6185,4.5673 79.2658,-27.3093 83.6113,-68.5572 4.6483,-44.1233 -29.1961,-83.9753 -72.9639,-88.4304 -46.5207,-4.7354 -88.4866,30.9921 -93.0513,77.1707 -0.1446,1.4627 -0.2523,0.9088 -0.3231,2.377"
       id="path11616"
       inkscape:connector-curvature="0"
       sodipodi:nodetypes="cssssssssssssssssssssc" />
    <path
       style="fill:none;fill-rule:evenodd;stroke:#f1f2f0;stroke-width:2;stroke-linecap:butt;stroke-linejoin:miter;stroke-miterlimit:4;stroke-dasharray:none;stroke-opacity:1"
       d="m -398.7207,799.91158 33.8401,0"
       id="path11618"
       inkscape:connector-curvature="0"
       sodipodi:nodetypes="cc" />
    <path
       sodipodi:nodetypes="cc"
       inkscape:connector-curvature="0"
       id="path11621"
       d="m -398.7207,799.91158 33.8401,0"
       style="fill:none;fill-rule:evenodd;stroke:#f1f2f0;stroke-width:2;stroke-linecap:butt;stroke-linejoin:miter;stroke-miterlimit:4;stroke-dasharray:none;stroke-opacity:1" />
    <path
       style="fill:none;fill-rule:evenodd;stroke:#f1f2f0;stroke-width:2;stroke-linecap:butt;stroke-linejoin:miter;stroke-miterlimit:4;stroke-dasharray:none;stroke-opacity:1"
       d="m -218.7206,799.91158 71.335,0"
       id="path11623"
       inkscape:connector-curvature="0"
       sodipodi:nodetypes="cc" />
    <path
       style="fill:none;fill-rule:evenodd;stroke:#37bbe4;stroke-width:2;stroke-linecap:butt;stroke-linejoin:miter;stroke-miterlimit:4;stroke-dasharray:none;stroke-opacity:1"
       d="m -729.0999,1020.3753 c 0,0 8.16494,-17.1526 17.36128,-17.1526 9.19635,0 17.36126,17.1526 17.36126,17.1526 0,0 8.16491,17.1525 17.36126,17.1525 9.19634,0 17.36127,-17.1525 17.36127,-17.1525"
       id="path10795-7"
       inkscape:connector-curvature="0"
       sodipodi:nodetypes="czczc" />
    <path
       sodipodi:nodetypes="ccccc"
       inkscape:connector-curvature="0"
       id="path10640-3"
       d="m -922.36039,768.06298 29.99607,-31.2619 0,30.5643 31.15865,-31.1587 0,34.3451"
       style="fill:none;fill-rule:evenodd;stroke:#f54123;stroke-width:2;stroke-linecap:butt;stroke-linejoin:miter;stroke-miterlimit:4;stroke-dasharray:none;stroke-opacity:1" />
    <path
       sodipodi:nodetypes="csssssssc"
       inkscape:connector-curvature="0"
       id="path10911"
       d="m -817.34308,721.70798 c -3.79158,-8.9643 -9.27808,-17.0372 -16.05778,-23.8169 -6.77966,-6.7797 -14.85253,-12.2662 -23.81685,-16.0577 -8.9643,-3.7916 -18.82006,-5.8883 -29.1655,-5.8883 -41.3818,0 -74.92839,33.5466 -74.92839,74.9284 0,41.3818 33.54659,74.9284 74.92839,74.9284 10.34545,0 20.2012,-2.0967 29.16551,-5.8883 8.96431,-3.7916 17.03717,-9.2781 23.81685,-16.0578 6.77968,-6.7796 12.26619,-14.8525 16.05777,-23.8168"
       style="opacity:1;fill:none;fill-opacity:1;stroke:#f45844;stroke-width:2;stroke-linecap:round;stroke-linejoin:round;stroke-miterlimit:4;stroke-dasharray:none;stroke-opacity:1" />
    <path
       style="opacity:1;fill:none;fill-opacity:1;stroke:#37bbe4;stroke-width:2;stroke-linecap:round;stroke-linejoin:round;stroke-miterlimit:4;stroke-dasharray:none;stroke-opacity:1"
       d="m -761.30601,991.70798 c 3.79158,-8.9644 9.27807,-17.0372 16.05777,-23.8169 6.77967,-6.7797 14.85254,-12.2662 23.81686,-16.0578 8.9643,-3.7916 18.82006,-5.8882 29.1655,-5.8882 41.3818,0 74.92839,33.5466 74.92839,74.92842 0,41.3817 -33.54659,74.9283 -74.92839,74.9283 -10.34545,0 -20.2012,-2.0966 -29.16551,-5.8882 -8.96431,-3.7916 -17.03717,-9.2781 -23.81686,-16.0578 -6.77968,-6.7797 -12.26618,-14.8525 -16.05776,-23.8168"
       id="path11614"
       inkscape:connector-curvature="0"
       sodipodi:nodetypes="csssssssc" />
    <path
       style="opacity:1;fill:none;fill-opacity:1;stroke:#f54123;stroke-width:2;stroke-linecap:round;stroke-linejoin:round;stroke-miterlimit:4;stroke-dasharray:none;stroke-opacity:1"
       d="m -817.34308,721.70798 c -3.79158,-8.9643 -9.27808,-17.0372 -16.05778,-23.8169 -6.77966,-6.7797 -14.85253,-12.2662 -23.81685,-16.0577 -8.9643,-3.7916 -18.82006,-5.8883 -29.1655,-5.8883 -41.3818,0 -74.92839,33.5466 -74.92839,74.9284 0,41.3818 33.54659,74.9284 74.92839,74.9284 10.34545,0 20.2012,-2.0967 29.16551,-5.8883 8.96431,-3.7916 17.03717,-9.2781 23.81685,-16.0578 6.77968,-6.7796 12.26619,-14.8525 16.05777,-23.8168"
       id="path8653"
       inkscape:connector-curvature="0"
       sodipodi:nodetypes="csssssssc" />
  </g>
</svg>
